<?xml version="1.0" encoding="UTF-8"?>
<svg xmlns="http://www.w3.org/2000/svg" viewBox="0 0 2004 2004">
  <defs>
    <style>
      .cls-1 {
        fill: #6dfaab;
      }

      .cls-2 {
        fill: #fbcf2e;
      }

      .cls-3 {
        fill: #2a348e;
      }

      .cls-4 {
        fill: #9d9f9f;
      }

      .cls-5 {
        fill: #556fb5;
        opacity: .1;
      }

      .cls-6 {
        fill: #5f4649;
      }

      .cls-7 {
        fill: #fffeec;
        stroke: #556fb5;
        stroke-width: 7px;
      }

      .cls-7, .cls-8, .cls-9, .cls-10 {
        stroke-miterlimit: 10;
      }

      .cls-11 {
        fill: #3b525f;
      }

      .cls-12 {
        fill: #0071bc;
      }

      .cls-13 {
        fill: #dcdcde;
      }

      .cls-14 {
        fill: #9f9f9f;
      }

      .cls-15 {
        fill: #faa031;
      }

      .cls-8, .cls-9, .cls-10 {
        fill: none;
        stroke: #000;
      }

      .cls-16 {
        opacity: .4;
      }

      .cls-17 {
        opacity: .5;
      }

      .cls-18 {
        fill: #afbdc1;
      }

      .cls-19 {
        fill: #897d7f;
      }

      .cls-9 {
        stroke-width: 2px;
      }

      .cls-20 {
        fill: #bc1422;
      }

      .cls-21 {
        fill: #c1b6b9;
      }

      .cls-22 {
        fill: #93784c;
      }

      .cls-10 {
        stroke-width: 4px;
      }
    </style>
  </defs>
  <g id="Preimport">
    <rect class="cls-9" x="202" y="202" width="1600" height="1600"/>
    <rect class="cls-10" x="2" y="2" width="2000" height="2000"/>
    <rect class="cls-5" x="2" y="2" width="2000" height="2000"/>
    <g id="Generatives_Objekt" data-name="Generatives Objekt" class="cls-16">
      <path class="cls-3" d="M63.04,1944.87c-.22,2.33,2.52,3.17,2.7,5.37,4.89-.64-18.94,22.68-20.93,24.6-3.12,3.02-7.09,1.7-8.76-.87-5.09-7.84,23.13-32.41,26.98-29.09Z"/>
      <path class="cls-3" d="M41.35,23.83c6.57,5.85,23.48,21.05,20.58,27.29-1.13,2.42-5.51,4.4-8.26,1.59l-19.97-20.39c-2.21-2.25-1.35-6.02-.11-7.8s4.85-3.27,7.76-.69Z"/>
      <path class="cls-3" d="M1966.04,137.66l-20.21-10.18c-3.84-1.93-4.47-5.65-3.46-8.13,3.97-9.85,30.4,6.24,29.77,12.14-.2,1.87-1.07,4.54-6.09,6.17Z"/>
      <path class="cls-3" d="M44.34,1909.02c.12,1.55,2.22,2.64.33,4.15,1.58,6.05-33.03,12.57-34.41,4.15-1.78-10.89,30.19-10.89,34.08-8.3Z"/>
      <path class="cls-3" d="M125.01,1954.94c.86.2,1.91-.55,2.54-1.03,8.28-6.21,18.21,18.69,19.26,22.51,1.16,4.21-3.27,7.18-6.38,6.9-4.36-.39-17-23.36-15.42-28.38Z"/>
      <path class="cls-3" d="M98.87,1964.1c4.71,9.03,4.05,21.95.38,32.17-1.09,3.03-5.76,1.02-7.18-.09-1.92-1.51-5.19-20.43,2.17-32.21l4.62.13Z"/>
      <path class="cls-3" d="M1902.04,2.06c8.67.35,7.16,37.18-2.29,33.04-7.12-3.12-6.41-33.39,2.29-33.04Z"/>
      <path class="cls-3" d="M1985.48,81.45c5.65,10.18-20.34,10.77-27.54,10.86-3.76.05-5.56-4.11-5.37-6.64.56-7.33,30.15-9.2,32.91-4.22Z"/>
      <path class="cls-3" d="M53.55,1874.85c-.75,2.47-.24,5.34-1.63,7.58-1.7.04-4.18,1.91-6.23.86l-17.59-8.99c-4.52-2.31-5.3-5.99-3.93-8.52,4.88-9.05,21.8,5.14,29.38,9.07Z"/>
      <g>
        <path class="cls-3" d="M515.27,69.67c-3.27-.28-3.54,3.11-.14,2.33l194.58-.82c12.69-.05,24.29-.56,35.49,1.21-4.17,13.66-5.34,27.57-1.89,43.39,0,2.46-4.11,2.06-5.21,2.83l-95.29-.52c-5.34-13.95-14.54-25.42-29.84-25.45-13.31-.03-28.16,10.83-29.13,25.67h-118.75c2.9-8.14,1.67-18.38.65-28.05l-124.35,55.08c-11.69,5.18-62.3,23.14-72.42,11.37-11.69-13.59,20.3-29.56,27.41-37.95l-69.37-.3c-3.69-6.03-13.21-11.1-18.92-12.25-18.06-3.63-21.77,10.26-31.1,12.44-2.63.62-5.51-.07-9.35.23l-42.65,44.93-.2,44.03c-14.14,1.13-25.76,11.38-26.85,25.67-1.01,13.33,8.57,29.51,25.55,30.49-.86,16.27,5.39,36.12.99,52.3-7.58,27.91-.82,59.54-3.17,89.94-2.46,1.6-10.25,1.49-10.04,5.14,1.03,18.12,2.98,39.13,5.55,56.6,3.17.66,7.06,2.33,8.08,3.15-.57,3.33-.52,7.52-4.8,7.57-15.65.18-17.41,36-3.96,52.36,5.24-9.7,4.99-18.42,3.77-28.58,5.56.76,5.18,6.35,5.12,8.92l.2,244.53c0,3.26,1.91,4.24,5.75,4.93l-6.71,39.32,34.61,23.54c-11.66,8.66-22.42-5.47-34.47,13.78.75,78.74.23,247.04.51,331.66,0,.99-.03,4.3-.98,4.6-14.11,4.59-27.24,9.2-41.71,13.1-2.36-.98-3.33-4.71-4.68-5.55l.04-127.31c21.35-14.29,34.05-41.08,34.23-66.75.18-27.29-14.28-49.53-34.28-66.9l.43-86.64c-12.78-.98-23.33,1.58-36.76-1.95l32.33-29.1-10.97-39.23,15.12,6.79-.11-152.13c13.03-1,22.8-16.93,23.16-27,.59-16.38-9.66-25.16-23.32-30.2l.2-99.1c-28.78-13.38-45.64-41.1-45.41-71.65.22-29.55,16.23-56.78,45.44-70.07l-.54-99.68c-11.29,6.38-26.39,36.27-34.01,23.6-4.39-7.31,29.86-31.31,33.38-41.09,2.94-6.05-.02-15.18.09-21.8-9.85,4.07-24.73,32.77-32.34,22.49-2.07-2.79-.98-5.94,1.62-8.61l29.58-30.33c2.59-2.66,1.96-7.4,0-9.92-7.38,5.59-18.49,24.13-25.16,16.31-2.38-2.8-1.17-6.17,1.5-8.73l25.79-24.73.61-65.61,63.64-1.19c8.84-5.9,24.54-33.03,31.54-27.56,3.13,2.45,3.11,6.23.65,9.09l-13.06,15.14c-3.94.62-2,2.11-.41,3.77,3.18,3.33,3.84-.28,4.93-1.23,15.18-13.14,32.55-41.16,38.85-31.48,5.69,8.74-15.78,19.74-19.7,28.95-3.27-.39-3.14,3.17-.19,2.36,18.04,14.48,43.12-47.41,52.83-30.48,4.75,8.28-20.33,21.75-22.76,32.45l112.84-1.57c11.11-21.44,29.69-40.74,51.56-44.75,26.53-4.86,50.03.15,69.45,18.87,17.78-6.13,121.21-46.52,124.62-21.49,2.45,18.01-47.61,37.98-57.68,46.77ZM462.33,69.92l-2.2,5.08-128.79,53.06c-5.07-.66-2.5-7-6.99-11.41-16.49,8.37-32.57,17.86-44.37,31.87,20.7,1.68,36.43-7.32,51.89-12.93,43.25-15.7,84.47-36.95,128.01-55.57,3.09-1.32,4.74-3.42,5.26-5.32.28-1.04.18-1.5.21-2.5,11.61,1.03,22.4-.2,33.15-6.97,20.54-12.94,43.6-20.49,61.78-39.41-37.68,1.72-71.04,16.64-105.07,27.91,3.42,8.07,6.12,11.14,7.13,16.19ZM651.93,77.06c-1.62-1.86-3.24-2.06-6.33-2.09l-19.07-.18c-4.18-.04-7.85,2.21-7.95,5.55-.27,9,43.31,8.18,33.35-3.28ZM712.44,78.33c-1.02-4.6-35.36-7.76-34.85,2.04.11,2.2,2.29,5.14,5.99,5.09,14.26-.19,30.95,2.31,28.86-7.13ZM124.9,130.12c.11,4.12-1,8.44,1.41,14.18,4.69-2.84,8.39-5.58,10.5-9.33l-.02-1.98c2.42.29,4.01-3.41,5.03-4.89,1.98-.3,4.97-2.2,4.58-4.79-.51,3.38,4.26-4.43,4.55-3.96-1.14-1.85-3.92-.88-4.96-.9-4.82-.11-14.08-.67-20.45.14-1.35,4.67-.72,8.08-.63,11.53ZM106.38,663.09l.03-22.95c0-3.97-2.99-6.33-6.27-6.13-2,.12-4.88,2.27-4.88,6.15v22.4c-.01,3.58,2.71,5.71,4.81,5.85,2.61.17,6.3-.85,6.31-5.32ZM106.51,700.59c.02-4.23-2.92-6.76-6.41-6.6-2.17.1-4.9,2.36-4.9,6.58l-.02,21.8c0,4.04,2.55,6.33,4.8,6.56,9.65,1,6.47-12.82,6.53-28.34Z"/>
        <path class="cls-3" d="M1919.86,1101.71c.11.88.1,1.76.1,2.64v87.89s28.72,12.16,28.72,12.16l-28.74,11.33-.2,187.93c-15.69-1.32-28.04,12.3-28.35,27.87-.32,16.11,12.73,28.12,28.4,27.81l.3,89.12c28.7,12.99,44.41,40.78,44,71.43-.39,29.09-16.16,55.56-43.63,70.22l-.34,80.64c-.22,4.11,4.93,3.95,4.46-.08l19.95-20.68c2.67-2.76,6.8-1.31,8.44.88,2.22,2.97.6,5.52-1.8,8.47-19.45,23.89-38.5,29.05-29.05,55.33-.49,3.21,3.1,2.66,2.48-.5,9.12-5.6,19.5-27.11,26.77-17.93,6.27,7.91-21.54,25.5-30.69,41.93-1.22,2.19.05,2.32,1.59,4.23s2.07.25,3.66-1.26c.82-.78,1.39-1.56,1.05-2.81,2.43-2.06,5.15-4.21,6.86-7,1.86.66,3.2-.67,2.76-2.58,2.19-.83,4.06-2.02,6.08-1.47,15.87,4.27-15.82,23.17-21.82,35.58-3.26,6.75-.43,16.15-.54,22.07l-.75,42.98-21.16.62c-13.39.39-28.17-2.29-43.08.69-7.93,1.19-25.55,33.76-33.02,27.01-5.88-5.31,1.28-10.11,7.94-19.68,1.35-1.94,7.72-4.47,6.23-6.77-5.83-6.23-7.25,1.51-9.41,3.25-15.09,12.16-29.56,36.55-36.48,26.81-5.23-7.36,17.36-20.82,19.84-29.24,3.02.47,3.1-2.63.16-2.67-3.34-.04-10.31-2.22-13.95.28l-29.05,31.04c-2.64,2.83-6.5,2.34-8.14.4-6.86-8.17,15.49-20.24,20.13-31.67l-102.91.59c-10.23,25.18-31.83,41.04-53.55,45.14-26.98,5.1-50.47-4.56-68.58-23.81-20.94,6.87-115.27,40.49-124.42,19.79-6.44-14.56,28.05-31.25,38.09-36.57l7.43-3.94c-3.43-1.88-5.49-1.21-7.43-1.2l-223.52.4c-2.86-15.78-6.9-30.45-14.31-46.61l161.73.22c6.94,13.93,14.13,27.32,29.85,27.87,17.46.62,25.46-12.88,31.98-27.93l85.67.18c-2.94,8.56-2.83,18.65-1.4,29.44l124.96-50.86,7.18-.15c1.05,2.6,3.41,4.82,2.42,7.69l-133.72,56.36c31.41-5.91,59.5-21.32,89.45-32.27,16.36-5.98,31.93-11.73,46.43-19.59,1.65,1.44,2.07,4.7,4.84,7.79,15.33-10.82,30.75-18.02,43.73-32.78-19.34-1.61-37,3.86-53.06,10.01-1.59-.78-3.12-2.09-4.9-2.38-2.8-.45-4.03-3.41-4.78-5.38,7.77-5.49,68.42-24.17,74.71-6.86,4.91,13.51-25.19,30.37-36.97,38.31l93.64-.21c9.52,6.64,18.69,13,29.55,8.35,10.96-4.69,18.53-13.32,17.63-26.71l32.3-34.24.37-21.7c13.52-.98,23.77-14.03,24.28-27.28.54-13.88-10.51-24.61-23.59-27.53l-.03-56.08c-.02-30.34,1.11-61.64,2.72-93.66,1.9-3.02,8.38-3.68,9.33-7.32,1.09-16.99-2.72-32.11-3.15-48.91-.1-4.02-1.7-10.88-6.71-9.72.18-2.48,1.65-5.11.27-7.42,1.06-1.42,5.03.2,6.34-.98,15.69-14.17,11.53-34.2,1.65-54.33-4.51,11.01-5.64,22.2-4.24,34.24-4.75-4.93-6.71-12.25-6.72-17,1.45-6.35,1.23-12.77.39-19.38-.38-2.96.04-6.53.05-9.58l.69-227.14c0-2.92-1.8-6.25-3.5-5.09-2.5,1.7-4.28,2.37-7.23,2.83-8.34,1.3-15.55,6.46-26.13,6.81,5.99-13.54,15.1-23.74,22.21-36.27l-21.3-36.87c14.02,1.43,22.92,8.56,35.44,8.55l.08-102.24c5.72-.79,10.55-7.82,19.12-7.47,8.94,12.64,22.37,22.41,27.91,36.62ZM1903.2,1315.23c1.12-5.26,4.48-32.59-5.55-31.62-7.8.76-6.43,32.2-1.47,34.46,1.46.67,6.21.99,7.03-2.83ZM1897.49,1343.55c-1.7.35-4.77,2.12-4.81,5.08l-.28,23.75c-.05,4.07,3.03,6.23,5.08,6.34,10.13.51,9.08-37.03,0-35.17ZM1864.03,1875.12c5.88,1.62,10.56-2.76,7.21-7.46.25-7.14,1.96-13.76.2-21.3-11.64,10.3-21.67,21.06-31.87,32.74,8.53,5.26,17.01,2.17,24.45-3.98ZM1313.68,1917.37c4.1.26,6.4-2.09,6.64-4.98.15-1.84-.77-5.71-4.55-5.74l-25.84-.2c-2.7-.02-4.66,3.54-4.72,5.77-.24,7.9,18.53,4.52,28.47,5.15ZM1378.76,1910.44c-.72-2.8-4.13-4.45-8.15-4.32l-21.24.64c-3.99.12-4.53,5.08-3.7,6.96,2.42,5.47,36.03,8.21,33.08-3.27ZM1446.64,1961.68c-2.81-.71-2.87,2.98.17,2.85,33.75-1.39,66.07-13.34,100.17-24.11-2.18-4.29-3.86-9.67-7.35-13.02-11.09,3.24-27.45-2.63-38.25,1.6-20.07,7.85-39.79,18.91-54.75,32.68Z"/>
        <path class="cls-3" d="M957.03,1882.12c1.08-.13,2.67.36,2.98,1.3.61,1.89-.27,4.39-2.76,5.71l-55.86,29.61,29.5,9.05-91.17.75-7.81,33.2-19.25-34.72-41.26,1.35-197.43-.26c2.87-9.91-5.49-22.98-11.66-28.06-8.84-7.26-21.44-7.02-29.87-1.66-10.03,6.38-13.61,17.28-12.75,29.44l-35.63.65c-7.39,36.87-37.2,63.07-72.68,62.96-35.95-.11-66.67-24.52-73.29-63.17l-51.3-.53c5.94-6.42,12.52-12.46,13.19-20.67.72-8.89-2.27-19.1-8.57-25l53.73-.91c14.26-26.6,39.53-41.74,68.4-41.06,27.22.65,50.82,15.97,64.33,41.85l313.5-.68c-1.87-10.21-8.01-14.6-8.88-25.12l36.63,16.25,29.73-29.21-.74,38.1,108.95.84ZM669.88,1898.93c-.56-1.06-1.61-4.25-3.51-4.3-8.42-.2-35.69-3.58-31.07,7.09,2.66,6.13,39.41,6.33,34.58-2.8ZM729.55,1897.93c-2.27-6.25-14.99-2.91-27.12-3.85-4.17-.32-7.05,2.75-7.09,5.93-.02,1.83,1.21,5.15,4.82,5.31,10.26.45,33.08,2.79,29.39-7.39Z"/>
        <path class="cls-3" d="M1582.72,71.87c11.07,16.2,2.06,31.95-.18,46.16l-350.47.24c.04,3.23,1.4,4.91-.57,6.03-13.94-2.21-27.26-5.55-41.03-5.86l-20.81,35.91-8.54-35.99-106.62-.1c8.25-6.95,19.85-6.07,31.48-13.57l-57.69-24.41c-2.76-1.17-4.72-1.91-4.74-4.63,0-1.31-.4-3.46,1.91-3.67l129.73-1.12-3-32.31,31.19,27.31,37.86-18.34-6.77,23.77,368.25.58ZM1418.99,97.97c4.08-.08,4.96-5.13,4.12-7.24-.51-1.27-1.88-3.49-4.81-3.49l-23.82.02c-4.18,0-6.74,2.55-6.81,5.63-.07,3.17,2.61,5.65,6.81,5.57l24.52-.48ZM1482.38,91.11c-2.33-5.84-34.61-6.24-35.36,1.73-.15,1.62,2.97,5.16,4.93,5.33,8.42.7,34.52,3.22,30.43-7.05ZM1296,100.1c-.1-2.91-2.1-5.62-6.07-5.58l-23.97.25c-3.18.03-4.03,3.85-4.41,5.41-2.01,8.14,34.75,8.14,34.46-.08ZM1354.01,98.09c-.97-2.36-3.46-3.09-7.04-3.06l-21.5.17c-3.57.03-5.03,3.18-5.2,4.97-.27,2.84,1.66,5.58,5.27,5.74,10.04.44,32.95,3.01,28.47-7.82Z"/>
        <path class="cls-3" d="M1893.8,71.87c7.47,1.47,16.23-3.06,23.79.04.77.11,1.78.94,1.79,2.74l.34,65.4,24.33,24.3c2.78,2.78.44,6.51-1.35,7.94-6.27,4.97-16.18-13.05-20.19-12.96.5-3.06-2.74-2.95-2.69,0-5.72,9.53,37.83,35.73,28.56,44.85-7.64,7.52-18.81-15.83-25.97-18.11.45-3.04-2.57-3.2-2.52-.16.87,4.43-1.57,11.75.73,16.91,5.07,10.83,39.06,34.73,29.47,41.45-8.23,5.77-17.99-16.8-29.66-22.2l-.31,115.83c-12.47-9.47-32.46-12.01-47.2-13.81l.78-46.84c-.04-2.46,2.56-5.66,5.12-6.84,3.42-1.57,5.41,3.5,12.7,4.95l-7.37-24.1c-1.78-5.81,6.59-10.69,5.52-17.57l-9.73,3.33c-2.89.99-7.86-3.04-7.74-6.97l.42-63.47-44.98-48.24-72.04-.12c.53-10.56-2.02-20.51-10.02-26.92-8.86-7.09-20.2-8.03-29.26-2.32-9.38,5.92-15.13,16.96-12.97,29.16l-61.04-.18c4.03-13.9,3-31.95-.51-45.87l137.31-.5c3.47,1.28,3.42-1.82-.06-1.96-.33-6.57-27.69-24.57-22.11-31.22,2.32-2.76,5.31-3.07,7.85-.93,12.07,10.13,21.44,22.36,32.54,33.3,2.92,2.87,10.34,1.88,14.82-.26-6.89-12.23-29.22-23.72-22.28-32.55,9.12-11.62,40.56,46.57,46.67,31.05l-15.49-16.9c-2.64-2.88-1.84-6.81.4-8.66,8.25-6.83,24.58,24.2,33.13,26.25,11.98,4.99,26.76-.31,39.23,2.14ZM1846.39,120.75c6.68,9.69,15.23,18.06,23.6,26.24-.46,3,2.45,3.36,2.51.25,6.97-9.31-20.1-34.59-26.25-29.13-2.96.02-2.87,3.09.14,2.64Z"/>
        <path class="cls-3" d="M124.51,1664.57l.32,46.39c-.35,2.23-2.18,7.42-5.34,7.89-5.07.75-8.57-4.51-13.71-5.78l7.27,21.85c2.74,8.22-5.68,16.49-9.53,23.91,6.45.14,10.16-5.63,16.2-5.84,2.54-.09,4.36,4.05,5.37,6.13l-.08,67.76,52.17,54.65,77.98.2c-13.33,13.33-9.32,33.52,2.83,46.28l-35.18.11c-3.51-.37-3.24,3.07.14,2.4,1.16,7.98,24.11,18.64,17.63,27.26-.91,1.22-3.54,3.19-5.66,1.25l-31.42-28.67c-3.47-3.16-35.62.02-40.63.1-3.15-.51-2.66,2.91.41,2.51,3.78,7.87,20.28,17.7,12.99,24.2-5.6,4.99-20.24-18.44-31.89-27.42-5.23-4.04-14.38-.86-19.96-1l-45.81-1.12-1.07-62.23c-.23-13.48-37.66-30.28-22.47-38.18,7.35-3.83,14.4,12.06,19.84,13.71-.45,3.08,2.48,3.2,2.64.2,1.53-3.25-.41-6.25-3.14-9.13l-28.16-29.66c-2.92-3.08-1.49-6.99.38-8.13,9.31-5.65,20.14,18.61,31.32,23.61-.19-8.72,4.35-22.07-1.59-28.49l-29.02-31.37c-2.82-3.05-2.74-7,1.04-9.53,7.16-4.79,19.06,19.64,29.48,24.34l-.12-115.1c1.39.97,1.97-.86,3.23-2.32,13.68,4.95,28.73,9.57,43.55,9.22ZM124.7,1848.36c-.95,10.06-.91,19.98-.63,32.39,11.24.75,21.36,1.39,34.56-.41-8.51-12.15-18.46-20.81-28.97-31.54.62-1.7-.9-2.44-2.32-4.03-.71-.79-1.66-2.15-2.42-.04-.5,1.41.22,2.8-.21,3.63Z"/>
        <path class="cls-3" d="M1917.18,830.8c-10.03-15.04.9-36.49-4.69-55.36-13.71,11.76-22.71,29.02-37.69,38.75-1.12-2.86-1.71-5.41-1.71-10.03l-.33-299.6c15.31.17,30.34-6.26,45.24-13.67-.09.38.35.93,1.43,1.69l-.14,335.64c0,1.95-1.72,2.5-2.09,2.58ZM1897.56,603.98c-7.29.38-8.09,34.29-.02,34.96,9.94.82,9.33-35.45.02-34.96ZM1904,689.75l-.24-20.67c-.05-3.99-3.96-6.11-5.99-5.91-2.18.21-5.56,2.18-5.46,5.93.37,14.63-3.03,31.73,7.26,28.99,3.16-.84,4.5-3.47,4.44-8.34Z"/>
        <path class="cls-2" d="M1025.46,71.98c-2.31.21-1.92,2.37-1.91,3.67.02,2.71,1.98,3.46,4.74,4.63l57.69,24.41c-11.63,7.5-23.23,6.62-31.48,13.57-10.49,0-21.05,5.1-31.63,8.7l-7.5,65.31c-15.5-16.49-25.56-34.54-39.59-52.7l-64.89,15.69c6.17-14.05,19.27-23.32,22.75-36.53,5.5-3.31,13.19-12.16,15.18-19.76-2.61-11.48-11.35-20-17.33-27.82-3.72-4.87-3.61-16.74-10.8-21.18-2.31-1.43-1.24-5.54-4.16-6.96.11-1.53,1.29-3.35,2.48-3.59,1.27-.26,2.83.17,4.31.71l54.94,20.14,45.69-50.96,1.5,62.67Z"/>
        <path class="cls-2" d="M1049.24,1881.41c-4.12,4.03-13.21,14.77-10.97,22.06,1.3,4.24,15.94,25.07,22.98,25.05-6.4-1.46,18.32,30.12,16.5,24.49.02,1.25-1.6,3.45-4.17,2.98l-60.9-11.09-36.8,57.1-10.15-65.84c-11.56-4.66-23.87-5-34.86-8.38l-29.5-9.05,55.86-29.61c2.49-1.32,3.37-3.82,2.76-5.71-.3-.94-1.9-1.43-2.98-1.3-1.53-1.1,2.64-2.1,2.63-3.01l-.39-59.91,45.52,47.32,62.36-26.07c-4.2,16.08-16.64,26.86-17.91,40.96Z"/>
        <path class="cls-2" d="M1922.65,1104.1c1.16-1.92-.97-2.62-2.79-2.4-5.53-14.21-18.97-23.98-27.91-36.62-8.57-.34-13.4,6.69-19.12,7.47l-44.77,11.5,34.53-56.85-37.51-54.18,47.81,7.87c3.86,2.59,11.56,7.29,16.55,5.68,10.59-14.54,22.03-27.45,30.31-41.86,1.91.81,3.06-1.1,2.46-2.84l9.11-8.23,4.83,67.02,65.82,20.65-64.72,27.29-2.3,66.61c-6.04-3-6.79-10.17-12.32-11.11Z"/>
        <path class="cls-2" d="M124.95,1485.21c10.58.04,20.71,4,31.42,10-14.87.62-22.7,10.16-31.63,14.58-23.52,11.63-36.89,38.94-36.21,66.56.64,25.78,13.62,51.8,36.15,64.06,8.79,4.78,16.51,10.48,29.88,14.06-9.48,4.28-20.16,9.86-30.05,10.09-14.82.35-29.87-4.27-43.55-9.22-1.26,1.46-1.83,3.28-3.23,2.32,0-8.85-49.36-25.55-46.49-88.12,1.44-31.44,20.49-59.93,48.06-76.46,12.35-7.41,32.17-7.92,45.66-7.87Z"/>
        <path class="cls-2" d="M1641.79,72.11c3.5,13.93,4.54,31.97.51,45.87-15.11,52.12-70.68,82.38-120.83,57.69,31.65-8.09,56.32-27.46,61.08-57.64,2.24-14.21,11.25-29.96.18-46.16-3.71-30.12-31.55-50.36-62.77-55.75,50.04-25.81,109.09,5.28,121.84,55.99Z"/>
        <path class="cls-3" d="M125.51,1267.87l-.56,217.34c-13.49-.05-33.31.46-45.66,7.87l-2.03-236.77c1.23-.93,2.72-4.29,5.06-5.51,9.57,3.36,43.21,9.56,43.19,17.08ZM99.87,1322.07c-9.43-1.65-6.7,15.74-6.53,28.57.05,4.19,3.69,6.13,6.59,5.43,6.15-1.48,7.35-32.7-.06-34ZM104.28,1386.15c-.38-3.11-4.64-4.65-6.66-4.34-6.19.95-8.25,36.39,2.03,35.15,7.63-.92,5.32-25.31,4.64-30.81Z"/>
        <path class="cls-2" d="M77.54,920.36c20,17.37,34.47,39.61,34.28,66.9-.17,25.66-12.88,52.46-34.23,66.75-22.18,14.85-51.4,18.72-75.5,5.59,37.64-8.36,60.8-37.39,60.39-72.6-.41-34.99-23.77-63.88-60.49-70.35,25.8-15.26,52.14-7.92,75.54,3.71Z"/>
        <path class="cls-13" d="M1917.18,830.8c7.55,11.32,23.75,12.07,37.21,20.36-5.84,6.62-44.17,8.8-36.48,15.83-7.82-9.36-8.89,35.2-9.83,24.75-2.75.73-5.43-1.38-6.95,1.56s-2.48,4.35-.82,7.48c-3.83-3.91-7.6-2.23-9.29.3-8.08-4.5-9.45-16.06-18.18-17.3.1-1.13-1.74-4.42-2.76-4.2l-50.53,11.03,31.54-44.97-25.65-47.59,49.36,16.15c14.98-9.73,23.98-26.99,37.69-38.75,5.6,18.87-5.34,40.32,4.69,55.36Z"/>
        <path class="cls-3" d="M1049.24,1881.41l128.28-.16c11.99,11.43,22.84,27.96,17.19,47.04l-21.22-.12-112.25.35c-7.04.02-21.68-20.81-22.98-25.05-2.24-7.29,6.84-18.03,10.97-22.06Z"/>
        <path class="cls-13" d="M835.8,31.94c-20.28,6.3-35.75,20.74-40.84,39.8-3.3,12.36-16.24,27.87-3.52,45.12-.95,1.17,2.84.98,4.16,1.63,1.38,2.65-4.21,1.91-3.49,4.04,8.18,22.26,27.25,34.32,51.51,39.82-35.49,19.87-78.63,2.95-96.06-34.67-1.89-4.08-4.89-9.05-9.46-9.08,1.11-.77,5.21-.37,5.21-2.83-3.44-15.82-2.28-29.73,1.89-43.39,4.2-2.89,7.36-8.17,10.65-13.03,19.7-29.1,50.73-38.09,79.94-27.42Z"/>
        <path class="cls-13" d="M1230.38,1881.75c7.41,16.16,11.45,30.84,14.31,46.61-1.13,1.02-4.7,3.87-5.61,6.65-10.97,33.57-40.87,61.22-79.17,53.43-1.37-1.28-3.34-4.78-1.84-4.67,5.1.37,45.22-33.24,36.64-55.48,5.65-19.08-5.2-35.61-17.19-47.04-9.44-9-17.14-21.55-36.9-22.97,31.3-16.98,64.92-4.04,85.73,20.3,2.54,1.31,3.08,1.08,4.03,3.16Z"/>
        <path class="cls-12" d="M916.54,43.01c2.93,1.43,1.85,5.54,4.16,6.96-12.34.15-2.33,9.43-6.41,21.05l-119.33.71c5.09-19.06,20.56-33.5,40.84-39.8,25.37,3.52,56.17-.89,80.74,11.07Z"/>
        <path class="cls-12" d="M1173.5,1928.17c-1.74,2.73-3.44,4.61-2.54,8.42.61,2.56,4.42,1.94,9.42,3.03-2.34,20.98-22.89,26.6-41.06,30.29l-18.46,3.75c-12.61,2.56-32.25-23.91-43.11-20.65,1.82,5.62-22.9-25.95-16.5-24.49l112.25-.35Z"/>
        <path class="cls-3" d="M1917.92,867c3.77,24.63.43,50.07,1.94,75.23.05.76.31,1.78-.09,2.49-8.28,14.41-19.72,27.32-30.31,41.86-4.99,1.61-12.68-3.09-16.55-5.68l-.07-97.1c8.73,1.24,10.1,12.8,18.18,17.3,1.88,4.73,5.27,10.32,9.89,14.29,1.84,1.58,1.75,5.75,3.76,7.72,1.04-3.52,2.89-4.81,2.78-7.97-.26-7.54,1.42-14.76.64-23.38.95,10.46,2.02-34.1,9.83-24.75Z"/>
        <path class="cls-12" d="M77.52,1865.39l1.07,62.23,45.81,1.12,3.15,25.18c-.63.47-1.68,1.23-2.54,1.03-5.29-1.22-8.07,1.55-12.63,3.9-3.9,2.01-12.3-1.04-13.51,5.26l-4.62-.13c3.01-4.81-7.03-13.38-11.79-11.96-6.79,2.01-11.39-3.98-16.71-1.78-.18-2.19-2.92-3.04-2.7-5.37,5.87-3.57-17.02-33.58-11.81-30.22-2.04-1.31-4.12-2.39-6.56-1.48,1.89-1.5-.21-2.59-.33-4.15,5.65,2.94,2.02-12.21,9.43-17.55,2.84-2.05,3.72-5.29,1.65-7.19-.87-.8-1.72-2.15-3.51-1.85,1.39-2.24.88-5.11,1.63-7.58,5.12-2.08,4.87-7.96,4.88-14.46,6.2,4.17,12.74,5.69,19.09,4.99Z"/>
        <path class="cls-12" d="M1943.89,1877.5c.3,2.9,2.31,5.2,4.42,7.06-2.55,1.65-3.64,24.32,6.52,23.64-1.54.46-.69,2.38-1.62,3.44-1.82,2.06-4.7.34-7.99,2.14.14,4.13.41,7.35,1.63,12.88-5.97,3.99-9.82,11.31-10.22,18.24-.72,1.32-2.22,1.92-3.31,2.84s-4.19.11-7.1,0c-4.11,5.09-7.14,7.45-13.31,8.28-5.3.71-9.26-2.12-15.06-5.92-6.84-4.48-10.13,12.59-28.24-9.36,10.08-1.34,18.39.92,27.22-2.01,1.97-3.65.59-7.26,1.59-10.19l21.16-.62.75-42.98c3.14,1.03,7.18,1.86,12.17,1.31,2.38-2.23,3.35-8.07,5.18-11.33,2.19,3.27,3.68,3.43,6.22,2.59Z"/>
        <path class="cls-2" d="M291.39,1882.06c6.3,5.9,9.3,16.12,8.57,25-.67,8.21-7.25,14.24-13.19,20.67-10.06-.1-18.57.24-28.81.27-12.15-12.76-16.16-32.95-2.83-46.28,9.06-9.06,27.55-7.81,36.24.34Z"/>
        <path class="cls-2" d="M77.42,560.91c13.66,5.03,23.9,13.81,23.32,30.2-.36,10.06-10.13,26-23.16,27-16.81,1.29-30.03-13.51-29.68-29.32s13.49-27.19,29.52-27.87Z"/>
        <path class="cls-2" d="M1919.74,1403.65c14.03,1.18,24.05,13.65,24.27,27.77.22,14.54-10.51,24.61-24.22,27.92-15.67.31-28.72-11.7-28.4-27.81.31-15.57,12.66-29.2,28.35-27.87Z"/>
        <path class="cls-2" d="M573.96,1928.1c-3.53,12.18-16.01,20.21-26.85,20.3-13.53.12-22.05-9.03-27.43-20.58-.86-12.16,2.72-23.06,12.75-29.44,8.43-5.36,21.03-5.59,29.87,1.66,6.17,5.07,14.54,18.14,11.66,28.06Z"/>
        <path class="cls-12" d="M1917.59,71.91c-7.56-3.1-16.32,1.43-23.79-.04,2.52-1.79,4.21-8.15.66-8.41-.73-.05-23.62-4.77-23.72-4.89-2.04-2.22-.07-4.3.84-5.52.72-.97,5.08.24,6.08-.68,10.22-9.42,21.52-15.82,34.5-7.77,3.51,2.18,10.81,2.03,12.11,5.32,3.14,7.96,9.59,10.8,15.88,14.53-.95,2.95-3.1,9.05.64,12.21,5.79,1.32,2.11,8.49.04,2.34-13.93-1.43-12.76-12.87-23.23-7.08Z"/>
        <path class="cls-3" d="M1933.32,1947.73c1.09-.92,2.59-1.52,3.31-2.84,2.68.13,5.5,1.41,8.07,3.99l16.86,16.9c3.45,3.45,2.77,7.49.68,9.49-2.66,2.53-6.73,1.93-9.39-.85l-16.37-17.09c-2.77-2.89-4.31-6.65-3.15-9.6Z"/>
        <path class="cls-3" d="M1942.69,50.92c-2.88,2.97-5.99,3.05-8.33,1.12-7.44-6.14,8.04-17.53,17.19-27.42,2.21-2.39,5.68-2.03,7.77-.65,2.3,1.52,3.43,6.25.57,9.2l-17.21,17.75Z"/>
        <path class="cls-3" d="M1953.21,1911.63c.93-1.05.08-2.98,1.62-3.44,5.95-.4,33-1.71,33.33,6.74.48,12.37-40.49,3.5-34.95-3.31Z"/>
        <path class="cls-3" d="M92.79,2c9.08.06,8.06,31.69,2.35,33.78-3.12,1.14-6.8-.73-7.03-5-.61-11.35-3.12-28.84,4.68-28.79Z"/>
        <path class="cls-3" d="M34.54,92.41l-19.07-2.42c-3.68-.47-6.49-1.93-6.91-4.44-.7-4.15,2.36-7.13,6.92-6.82l19.04,1.3c4.74.32,7.72,2.29,7.68,5.7-.05,4.38-2.81,7.3-7.66,6.68Z"/>
        <path class="cls-3" d="M1872.35,1964.2c-7.09,9.57-9.87,22.69-17.5,18.79-1.95-1-4.22-3.96-2.64-7.26,4.66-9.73,12.44-28.01,20.23-20.11,1.7,1.72,2.47,5.13-.09,8.58Z"/>
        <path class="cls-3" d="M51.04,125.35c-9.87,4.59-24.44,17.96-28.41,7.75-.88-2.25.02-5.58,2.91-7.18l15.24-8.42c3.3-1.82,6.18-2.99,8.8-.83,2.04,1.67,3.19,4.83,1.47,8.69Z"/>
        <path class="cls-3" d="M1948.31,1884.56c-2.11-1.86-4.12-4.16-4.42-7.06-2.55-1.79,27.21-21.9,30.03-10.99,2.18,8.46-19.19,15.19-25.61,18.05Z"/>
        <path class="cls-3" d="M1854.75,16.79c7.2-3.27,21.14,24.44,16.02,28.18-2.64,1.93-6.44,2.01-8.49-1.19-5.58-8.69-15.8-23.24-7.53-26.99Z"/>
        <path class="cls-3" d="M134.47,42.28c-1.58,2.91-4.2,4.37-5.86,4.5-14.4,1.07,4.55-31.43,11.16-29.9,3.43.79,5.81,4.87,3.71,8.75l-9,16.65Z"/>
        <path class="cls-3" d="M1902.14,1963.82c10.45-1.34,9.05,32.7,2.37,33.79-3.33.55-6.57-2.03-6.69-6.68l-.53-21.26c-.09-3.46,2.71-5.58,4.85-5.86Z"/>
        <path class="cls-12" d="M104.38,53.09c-4.42,3.06-3.61,8.47-9.34,7.89s-5.33-3.37-7.63-8.87c-1.98-.25-5.13,1.8-5.47-.35-.31-1.92-.48-3.15.05-4.79-.33,1.02,12.88-8.16,23.27.39-5.83-4.8,10.41,1.33,7.94,3.97-1.99,2.13-6.02-.2-8.81,1.74Z"/>
        <path class="cls-12" d="M1830.25,1936.54c1.66-2.81-3.37-1.38-3.18-3.53,2.15-1.74,3.58-9.48,9.41-3.25,1.48,2.3-4.88,4.83-6.23,6.77Z"/>
        <path class="cls-12" d="M1926.98,1838.32c.34,1.24-.23,2.03-1.05,2.81-1.59,1.51-2.11,3.18-3.66,1.26s-2.81-2.05-1.59-4.23c2.13-.73,4.16,1.56,6.3.16Z"/>
        <ellipse class="cls-12" cx="116.55" cy="57.84" rx="1.94" ry="1.97"/>
        <path class="cls-12" d="M163.26,1932.95c-3.07.41-3.56-3.02-.41-2.51-.05.86.09,1.71.41,2.51Z"/>
        <path class="cls-12" d="M222.94,1930.51c-3.38.67-3.64-2.77-.14-2.4.86.74.81,1.54.14,2.4Z"/>
        <path class="cls-12" d="M165.45,70.03c-1.1.95-1.75,4.55-4.93,1.23-1.59-1.66-3.53-3.15.41-3.77-.91,1.26.05,2.38.87,2.44,1.45.11,2.71-.11,3.65.1Z"/>
        <path class="cls-12" d="M184.41,69.86c-2.95.81-3.08-2.75.19-2.36-.3.77-.38,1.55-.19,2.36Z"/>
        <path class="cls-12" d="M515.14,71.99c-3.4.78-3.14-2.61.14-2.33.51.74.44,1.64-.14,2.33Z"/>
        <path class="cls-12" d="M1779.11,71.61c-.64-.66-.84-1.32-.06-1.96,3.48.14,3.54,3.24.06,1.96Z"/>
        <path class="cls-12" d="M1810.43,1930.59c.16-.88.21-1.78.16-2.67,2.95.04,2.86,3.14-.16,2.67Z"/>
        <path class="cls-12" d="M74.89,1840.92c.87.2,1.75.27,2.64.2-.16,3.01-3.09,2.88-2.64-.2Z"/>
        <path class="cls-12" d="M1933.84,1831.33c.85-1.39,1.19-1.98,2.76-2.58.45,1.91-.9,3.24-2.76,2.58Z"/>
        <path class="cls-12" d="M1922.12,1814.67c.86.02,1.7-.15,2.48-.5.62,3.16-2.97,3.71-2.48.5Z"/>
        <path class="cls-12" d="M1919.77,944.71c.41-.71.14-1.72.09-2.49.82.13,1.63,0,2.37-.36.59,1.74-.56,3.65-2.46,2.84Z"/>
        <path class="cls-12" d="M1924.59,1770.66c.47,4.03-4.69,4.18-4.46.08l4.46-.08Z"/>
        <path class="cls-12" d="M1922.65,1104.1c-.76.73-1.83.84-2.69.24,0-.88,0-1.76-.1-2.64,1.82-.22,3.95.47,2.79,2.4Z"/>
        <path class="cls-12" d="M1922.41,186.07c-.83-.16-1.68-.22-2.52-.16-.05-3.05,2.97-2.88,2.52.16Z"/>
        <path class="cls-12" d="M1922.51,159.33h-2.69c-.05-2.95,3.19-3.06,2.69,0Z"/>
        <path class="cls-12" d="M177.01,118.65c5,4.34-9.1,27.44,14.27,39.08,9.86,4.91,22.08,2.73,30.09-5.23,8.59-8.55,9.21-22.28,5.66-34.03l69.37.3c-7.11,8.39-39.11,24.36-27.41,37.95,10.12,11.76,60.73-6.2,72.42-11.37,16.79,20.58,44.32,27.88,71.57,21.47,23.52-5.54,43.32-23.69,52.13-48.48h118.75c-1.14,17.45,12.88,32.14,29.2,32.02,18.1-.14,26.86-14.85,29.77-32.26l95.29.52c4.57.02,7.57,5,9.46,9.08,17.43,37.62,60.57,54.53,96.06,34.67-24.26-5.5-43.33-17.56-51.51-39.82-.73-2.13,4.86-1.38,3.49-4.04l138.04.25c-3.48,13.21-16.57,22.48-22.75,36.53l64.89-15.69c14.04,18.16,24.1,36.21,39.59,52.7l7.5-65.31c10.58-3.61,21.13-8.71,31.63-8.7l106.62.1,8.54,35.99,20.81-35.91c13.77.32,27.09,3.66,41.03,5.86,1.97-1.13.61-2.8.57-6.03l350.47-.24c-4.75,30.18-29.42,49.55-61.08,57.64,50.16,24.69,105.72-5.57,120.83-57.69l61.04.18c2.19,12.36,12.77,20.93,25.04,21.19,12.94.28,22.65-8.85,27.21-21.12l72.04.12,44.98,48.24-.42,63.47c-13.79-5.5-28.53-6.86-38.82,4.47s-10.12,27.88-.49,38.55c11.03,12.23,26.95,11.11,40.81,4.16l-.78,46.84c-12.06-1.47-26.49,4.91-38.41,9.81,13.76,7.32,31.11,7.06,38.58,20.56l1.29,119c-11.41,8.85-21.25,17.98-40.35,20.94,13.45,8.75,24.76,10,38.73,10.15l.33,299.6c0,4.62.59,7.17,1.71,10.03l-49.36-16.15,25.65,47.59-31.54,44.97,50.53-11.03c1.01-.22,2.86,3.07,2.76,4.2l.07,97.1-47.81-7.87,37.51,54.18-34.53,56.85,44.77-11.5-.08,102.24c-12.52,0-21.42-7.12-35.44-8.55l21.3,36.87c-7.11,12.52-16.21,22.73-22.21,36.27,10.57-.35,17.79-5.51,26.13-6.81-1.18,1.8.39,4.25,1.85,4.41,1.55.17,5.47.6,5.62-1.19.19-2.26.1-4.34-.24-6.05,1.7-1.16,3.51,2.17,3.5,5.09l-.69,227.14c-3.37-1.28-2.48-5.61-6.23-5.54-4.09.08-5.5,4.25-6.46,7.48-5.5-3.11-3.54-10.39-7.58-17.21-10.57,21.35.2,48.18-6.66,61-2.53-10.36-5.06-19.52-12.79-28.32-7.28,16.38-1.8,52.97,14.97,50.13,3.58-.61,10.87-1.21,11.23-6.31.54-7.73-1.63-15.14,2.49-23.39,3.61,9.19,3.58,18.12,5.69,27.6,2.91.81,6.47-2.05,7.88,1.59,1.38,2.31-.09,4.94-.27,7.42l-25.64,5.91c-3.76.87-6.86,2.96-9.06,4.11-3.15,1.65,1.21,10.88-.71,12.61-19.1,17.21-30.8,40.33-27.93,66.45,3.87,35.27,28.07,61.78,61.14,70.54l.03,56.08c-15.05.29-27.11,10.81-28.33,25.32-1.39,16.62,10.32,30.75,27.64,29.49l-.37,21.7-32.3,34.24c1.04-14.75-11.56-26.9-25.32-26.97-15.55-.07-25.99,13.27-25.65,29.53.13,6.24,5.13,10.48,3.78,15.79l-93.64.21c11.78-7.93,41.88-24.79,36.97-38.31-6.29-17.31-66.94,1.37-74.71,6.86-19.26-15.82-44.75-24.21-70.94-16.98-22.6,6.24-41.83,24.72-50.21,49.1l-85.67-.18c-5.54-13.84-11.44-26.97-25.66-28.88-22.19-2.98-29.06,11.83-36.17,28.93l-161.73-.22c-.95-2.07-1.49-1.85-4.03-3.16-20.81-24.35-54.43-37.29-85.73-20.3,19.76,1.42,27.46,13.97,36.9,22.97l-128.28.16c1.27-14.1,13.71-24.88,17.91-40.96l-62.36,26.07-45.52-47.32.39,59.91c0,.91-4.16,1.91-2.63,3.01l-108.95-.84.74-38.1-29.73,29.21-36.63-16.25c.87,10.51,7.01,14.91,8.88,25.12l-313.5.68c-13.51-25.88-37.11-41.2-64.33-41.85-28.88-.69-54.14,14.45-68.4,41.06l-53.73.91c-8.69-8.15-27.19-9.39-36.24-.34l-77.98-.2-52.17-54.65.08-67.76c4.89.5,9.01,4.33,14.51,5.33,13.29,2.42,25.04-5.85,29.61-16.55,5.47-12.8,1.67-26.25-7.64-34.72-10.66-9.7-23.82-6.56-36.74-2.22l-.32-46.39c9.89-.23,20.57-5.81,30.05-10.09-13.37-3.59-21.09-9.28-29.88-14.06l.06-130.62c8.93-4.42,16.77-13.95,31.63-14.58-10.7-6-20.84-9.96-31.42-10l.56-217.34c1.73-.7,3.24-2.15,6.05-2.67l-6.53-16.18-1.02-56.03c-.13-7.07,3.09-13.1,9.62-18.96-3.21-2.13-6.39-1.69-8.7-4.86-.28-84.62.24-252.92-.51-331.66,12.06-19.26,22.82-5.13,34.47-13.78l-34.61-23.54,6.71-39.32c-3.85-.69-5.75-1.67-5.75-4.93l-.2-244.53c5.63,1.92,3.7,9.94,7.44,15.2,6.2,8.73,9.65,17.5,14.83,27.33,7.25-15.92,4.81-31.92,4.34-49.2l13.67,19.92c8.37-15.6-1.85-48.96-15.26-47.9-14.03,1.11-.83,9.74-12.14,20.88-4.99-5.12-6.39-10.37-6.06-16.13-4.73-3.69-8.47-.92-11.73-2.82,4.28-.05,4.23-4.23,4.8-7.57l21.59-3.43,15.15-10.75c2.81-1.99-.79-6.66-4.07-8.88,21.9-17.85,31.09-45.34,24.62-73.92-6.84-30.17-30.09-49.81-57.7-57.85,4.39-16.18-1.86-36.03-.99-52.3,13.74.79,25.78-14.49,26.62-25.93,1.22-16.57-10.61-27.87-25.32-30.24l.2-44.03,42.65-44.93c3.84-.3,6.72.39,9.35-.23Z"/>
        <path class="cls-2" d="M642.81,118.08c-2.91,17.41-11.67,32.12-29.77,32.26-16.32.12-30.34-14.57-29.2-32.03.97-14.84,15.81-25.7,29.13-25.67,15.3.03,24.5,11.49,29.84,25.45Z"/>
        <path class="cls-2" d="M227.02,118.46c3.55,11.75,2.94,25.48-5.66,34.03-8.01,7.97-20.23,10.15-30.09,5.23-23.36-11.64-9.27-34.74-14.27-39.08,9.32-2.18,13.04-16.07,31.1-12.44,5.71,1.15,15.23,6.22,18.92,12.25Z"/>
        <path class="cls-2" d="M124.8,207.84c14.71,2.37,26.54,13.66,25.32,30.24-.84,11.44-12.88,26.72-26.62,25.93-16.97-.98-26.56-17.17-25.55-30.49,1.09-14.3,12.71-24.54,26.85-25.67Z"/>
        <path class="cls-2" d="M106.51,700.59c-.06,15.52,3.12,29.35-6.53,28.34-2.26-.23-4.8-2.53-4.8-6.56l.02-21.8c0-4.22,2.73-6.48,4.9-6.58,3.48-.16,6.42,2.37,6.41,6.6Z"/>
        <path class="cls-2" d="M651.93,77.06c9.97,11.46-33.61,12.28-33.35,3.28.1-3.35,3.77-5.59,7.95-5.55l19.07.18c3.08.03,4.71.23,6.33,2.09Z"/>
        <path class="cls-2" d="M106.38,663.09c0,4.47-3.7,5.49-6.31,5.32-2.1-.14-4.83-2.27-4.82-5.85v-22.4c.01-3.88,2.9-6.03,4.9-6.15,3.28-.2,6.27,2.16,6.27,6.13l-.03,22.95Z"/>
        <path class="cls-2" d="M712.44,78.33c2.09,9.44-14.59,6.94-28.86,7.13-3.7.05-5.88-2.9-5.99-5.09-.51-9.8,33.83-6.64,34.85-2.04Z"/>
        <path class="cls-12" d="M136.81,134.97c-2.11,3.75-5.81,6.49-10.5,9.33-2.41-5.74-1.3-10.06-1.41-14.18,3.32,4.27,6.39,7,11.91,4.85Z"/>
        <g>
          <path class="cls-2" d="M465.09,118.32c-8.81,24.78-28.61,42.94-52.13,48.48-27.25,6.42-54.77-.89-71.57-21.47l124.35-55.08c1.01,9.68,2.24,19.91-.65,28.06Z"/>
          <path class="cls-2" d="M465.13,74.7c-.52,1.9-2.17,4-5.26,5.32-43.53,18.62-84.76,39.88-128.01,55.57-.45-2.58-1.58-5-.53-7.53l128.79-53.06c1.56-.64,3.39-.07,5-.3Z"/>
          <path class="cls-12" d="M331.34,128.06c-1.05,2.54.08,4.95.53,7.53-15.46,5.61-31.19,14.61-51.89,12.93,11.8-14.01,27.88-23.5,44.37-31.87,4.49,4.41,1.92,10.75,6.99,11.41Z"/>
          <path class="cls-19" d="M465.34,72.2c-.03,1,.07,1.46-.21,2.5-1.62.23-3.44-.35-5,.3l2.2-5.08c1.7-.31,3.06.36,3.01,2.28Z"/>
        </g>
        <path class="cls-12" d="M146.4,123.31c.06-1.67-1.34-3.21-.42-4.86,1.04.02,3.83-.94,4.96.9-.29-.47-5.06,7.34-4.55,3.96Z"/>
        <path class="cls-12" d="M141.82,128.1c-1.02,1.48-2.61,5.18-5.03,4.89-.01-1.09-.5-2.72,0-3.88.83-1.95,3.33-1.33,5.04-1.01Z"/>
        <path class="cls-2" d="M1453.95,1881.92c-6.52,15.04-14.52,28.55-31.98,27.93-15.72-.56-22.9-13.94-29.85-27.87,7.11-17.11,13.98-31.91,36.17-28.93,14.23,1.91,20.12,15.04,25.66,28.88Z"/>
        <path class="cls-2" d="M1872.68,1752.11c13.08,2.93,24.13,13.66,23.59,27.53-.51,13.25-10.76,26.3-24.28,27.28-17.32,1.26-29.03-12.87-27.64-29.49,1.21-14.52,13.28-25.03,28.33-25.32Z"/>
        <path class="cls-2" d="M1839.32,1862.86c.89,13.39-6.67,22.02-17.63,26.71-10.86,4.65-20.03-1.71-29.55-8.35,1.34-5.32-3.65-9.55-3.78-15.79-.34-16.26,10.1-29.61,25.65-29.53,13.76.06,26.35,12.21,25.32,26.97Z"/>
        <path class="cls-12" d="M1864.03,1875.12c-7.43,6.15-15.92,9.24-24.45,3.98,10.2-11.68,20.23-22.44,31.87-32.74,1.76,7.54.04,14.16-.2,21.3,3.34,4.7-1.33,9.07-7.21,7.46ZM1863.81,1865.71c-2.99,1.6-1.59,6.21-.03,6.97,1.34.65,4.42.2,6.01-1.17,1.13-.98-.09-4.46-1.12-5.67-.66-.77-2.95-1.16-4.87-.13Z"/>
        <path class="cls-2" d="M1313.68,1917.37c-9.95-.63-28.71,2.74-28.47-5.15.07-2.23,2.02-5.79,4.72-5.77l25.84.2c3.78.03,4.7,3.9,4.55,5.74-.24,2.89-2.54,5.24-6.64,4.98Z"/>
        <path class="cls-2" d="M1897.49,1343.55c9.08-1.87,10.12,35.67,0,35.17-2.05-.1-5.13-2.27-5.08-6.34l.28-23.75c.04-2.96,3.11-4.73,4.81-5.08Z"/>
        <path class="cls-2" d="M1378.76,1910.44c2.95,11.48-30.65,8.73-33.08,3.27-.83-1.87-.29-6.84,3.7-6.96l21.24-.64c4.01-.12,7.43,1.53,8.15,4.32Z"/>
        <path class="cls-2" d="M1903.2,1315.23c-.81,3.83-5.56,3.5-7.03,2.83-4.96-2.26-6.32-33.7,1.47-34.46,10.03-.97,6.67,26.36,5.55,31.62Z"/>
        <g>
          <path class="cls-13" d="M1874.85,1536.42c5.01-1.15,6.6,5.7,6.71,9.72.43,16.8,4.24,31.91,3.15,48.91-.95,3.65-7.44,4.3-9.33,7.32-1.62,32.02-2.74,63.32-2.72,93.66-33.07-8.76-57.27-35.27-61.14-70.54-2.87-26.12,8.83-49.24,27.93-66.45,1.92-1.73-2.45-10.96.71-12.61,2.19-1.14,5.3-3.24,9.06-4.11l25.64-5.91Z"/>
          <path class="cls-2" d="M1859.89,1463.91c1.01,2.63,1.45,7.26,4.94,7.9.77,6.66,2.49,14.5,7.31,19.11,0,4.74,1.97,12.07,6.72,17-1.4-12.04-.26-23.23,4.24-34.24,9.88,20.13,14.04,40.16-1.65,54.33-1.31,1.18-5.28-.44-6.34.98-1.4-3.64-4.96-.78-7.88-1.59-2.11-9.49-2.08-18.42-5.69-27.6-4.12,8.25-1.94,15.66-2.49,23.39-.36,5.1-7.65,5.7-11.23,6.31-16.77,2.84-22.25-33.75-14.97-50.13,7.73,8.8,10.26,17.96,12.79,28.32,6.85-12.81-3.91-39.64,6.66-61,4.04,6.83,2.08,14.1,7.58,17.21Z"/>
          <path class="cls-12" d="M1872.53,1471.55c.85,6.61,1.06,13.03-.39,19.38-4.81-4.6-6.54-12.45-7.31-19.11,2.57.47,5.15.28,7.69-.27Z"/>
        </g>
        <g>
          <path class="cls-12" d="M1468.21,1933.11v-5.14c1.94,0,4-.67,7.43,1.2l-7.43,3.94Z"/>
          <path class="cls-12" d="M1674.93,1872.72c-.98-.86-.58-4.05-2.16-4.51.99-2.86-1.37-5.09-2.42-7.69-.33-.81.11-1.95.08-2.79,16.06-6.15,33.72-11.62,53.06-10.01-12.98,14.77-28.4,21.96-43.73,32.78-2.76-3.09-3.19-6.34-4.84-7.79Z"/>
          <g>
            <path class="cls-2" d="M1660.76,1849.98c.75,1.97,1.99,4.93,4.78,5.38l-2.37,5.31-124.96,50.86c-1.43-10.79-1.54-20.87,1.4-29.44,8.37-24.38,27.61-42.86,50.21-49.1,26.19-7.23,51.68,1.15,70.94,16.98Z"/>
            <path class="cls-2" d="M1674.93,1872.72c-14.49,7.86-30.07,13.61-46.43,19.59-29.95,10.94-58.05,26.35-89.45,32.27l133.72-56.36c1.58.46,1.18,3.65,2.16,4.51Z"/>
            <path class="cls-22" d="M1670.44,1857.74c.03.84-.41,1.98-.08,2.79l-7.18.15,2.37-5.31c1.78.29,3.31,1.6,4.9,2.38Z"/>
          </g>
          <path class="cls-12" d="M1446.81,1964.53c-3.05.13-2.98-3.56-.17-2.85.17.94.23,1.9.17,2.85Z"/>
        </g>
        <path class="cls-2" d="M729.55,1897.93c3.7,10.18-19.13,7.84-29.39,7.39-3.61-.16-4.85-3.48-4.82-5.31.04-3.18,2.92-6.26,7.09-5.93,12.14.95,24.85-2.4,27.12,3.85Z"/>
        <path class="cls-2" d="M669.88,1898.93c4.83,9.13-31.92,8.93-34.58,2.8-4.62-10.67,22.65-7.29,31.07-7.09,1.9.04,2.95,3.23,3.51,4.3Z"/>
        <path class="cls-2" d="M1418.99,97.97l-24.52.48c-4.2.08-6.88-2.4-6.81-5.57.07-3.08,2.62-5.63,6.81-5.63l23.82-.02c2.93,0,4.3,2.22,4.81,3.49.85,2.11-.04,7.16-4.12,7.24Z"/>
        <path class="cls-2" d="M1296,100.1c.29,8.22-36.47,8.22-34.46.08.39-1.56,1.24-5.38,4.41-5.41l23.97-.25c3.97-.04,5.97,2.67,6.07,5.58Z"/>
        <path class="cls-2" d="M1482.38,91.11c4.1,10.27-22.01,7.76-30.43,7.05-1.96-.16-5.08-3.71-4.93-5.33.75-7.97,33.03-7.57,35.36-1.73Z"/>
        <path class="cls-2" d="M1354.01,98.09c4.48,10.84-18.43,8.27-28.47,7.82-3.61-.16-5.54-2.9-5.27-5.74.17-1.79,1.63-4.94,5.2-4.97l21.5-.17c3.58-.03,6.07.7,7.04,3.06Z"/>
        <path class="cls-2" d="M1872.19,230.07c-.12,3.92,4.86,7.96,7.74,6.97l9.73-3.33c1.06,6.87-7.3,11.76-5.52,17.57l7.37,24.1c-7.29-1.46-9.29-6.52-12.7-4.95-2.56,1.18-5.16,4.37-5.12,6.84-13.87,6.95-29.78,8.07-40.81-4.16-9.63-10.67-9.57-27.46.49-38.55s25.02-9.98,38.82-4.47Z"/>
        <path class="cls-2" d="M1755.59,118.24c-4.56,12.27-14.27,21.39-27.21,21.12-12.27-.26-22.85-8.83-25.04-21.19s3.58-23.24,12.97-29.16c9.06-5.71,20.4-4.77,29.26,2.32,8.01,6.41,10.55,16.36,10.02,26.92Z"/>
        <path class="cls-12" d="M1846.39,120.75c-3.01.45-3.1-2.62-.14-2.64-.05.88,0,1.77.14,2.64Z"/>
        <path class="cls-12" d="M1869.99,147c.55.53,1.83.15,2.51.25-.06,3.11-2.97,2.75-2.51-.25Z"/>
        <path class="cls-2" d="M125.08,1759.1c-1.01-2.07-2.82-6.22-5.37-6.13-6.04.21-9.74,5.98-16.2,5.84,3.85-7.41,12.27-15.69,9.53-23.91l-7.27-21.85c5.14,1.27,8.65,6.53,13.71,5.78,3.16-.47,4.99-5.66,5.34-7.89,12.92-4.34,26.08-7.48,36.74,2.22,9.31,8.46,13.1,21.92,7.64,34.72-4.57,10.7-16.32,18.97-29.61,16.55-5.51-1-9.62-4.84-14.51-5.33Z"/>
        <path class="cls-12" d="M129.65,1848.8c-.83-.85-2.61-.46-4.95-.44.44-.83-.29-2.22.21-3.63.76-2.11,1.71-.75,2.42.04,1.42,1.59,2.95,2.33,2.32,4.03Z"/>
        <path class="cls-2" d="M1904,689.75c.06,4.87-1.28,7.49-4.44,8.34-10.29,2.74-6.89-14.36-7.26-28.99-.1-3.74,3.29-5.72,5.46-5.93,2.04-.2,5.94,1.92,5.99,5.91l.24,20.67Z"/>
        <path class="cls-2" d="M1897.56,603.98c9.32-.49,9.92,35.78-.02,34.96-8.07-.67-7.28-34.58.02-34.96Z"/>
        <path class="cls-3" d="M794.96,71.73l119.33-.71c5.74-.03,11.48.73,17.2.13,5.97,7.82,14.72,16.34,17.33,27.82-1.99,7.6-9.68,16.45-15.18,19.76l-138.04-.25c-1.32-.65-5.11-.46-4.16-1.63-12.72-17.25.22-32.76,3.52-45.12Z"/>
        <g>
          <path class="cls-2" d="M1872.91,324.09c14.74,1.8,34.73,4.34,47.2,13.81,25.15,19.09,39.42,47.71,38.82,78.4-.58,29.97-16.32,57.83-40.95,74.6-14.9,7.4-29.93,13.83-45.24,13.67-13.97-.15-25.28-1.41-38.73-10.15,19.11-2.96,28.94-12.09,40.35-20.94,37.43-29.03,36.93-93.91-1.29-119-7.48-13.49-24.82-13.24-38.58-20.56,11.92-4.91,26.35-11.29,38.41-9.81Z"/>
          <path class="cls-3" d="M1874.37,473.47l-1.29-119c38.22,25.1,38.72,89.98,1.29,119Z"/>
        </g>
        <path class="cls-3" d="M124.74,1509.79l-.06,130.62c-22.53-12.26-35.51-38.28-36.15-64.06-.68-27.62,12.69-54.93,36.21-66.56Z"/>
        <path class="cls-2" d="M104.28,1386.15c.68,5.5,2.99,29.88-4.64,30.81-10.28,1.24-8.22-34.2-2.03-35.15,2.02-.31,6.28,1.23,6.66,4.34Z"/>
        <path class="cls-2" d="M99.87,1322.07c7.41,1.3,6.21,32.53.06,34-2.9.7-6.54-1.25-6.59-5.43-.17-12.82-2.89-30.22,6.53-28.57Z"/>
        <g>
          <path class="cls-13" d="M77.56,1181.32c1.36.84,2.32,4.57,4.68,5.55,14.47-3.91,27.6-8.51,41.71-13.1.95-.31.98-3.62.98-4.6,2.31,3.17,5.49,2.73,8.7,4.86-6.53,5.86-9.74,11.89-9.62,18.96-1.67-.59-3.19.08-4.5,2.16l-14.63,23.23c7.17,10.65,11.91,22.21,20.15,30.65l6.53,16.18c-2.81.52-4.32,1.97-6.05,2.67.02-7.52-33.62-13.72-43.19-17.08-2.34,1.22-3.82,4.58-5.06,5.51-9.27-6.55-3.49,6.63-25.75,21.51-1.62-14.48-4.45-27.52-4.46-43.13-7.56-3.5-38.71-12.11-38.73-18.7,10.22-4.81,33.96-10.8,37.95-14.48,3.4-3.14.34-6.32.9-10.12l5.03-34.54c7.6,5.73,17.68,25.69,25.35,24.48Z"/>
          <path class="cls-3" d="M124.01,1192.98l1.02,56.03c-8.23-8.44-12.97-20-20.15-30.65l14.63-23.23c1.31-2.07,2.83-2.75,4.5-2.16Z"/>
        </g>
        <path class="cls-13" d="M1907.44,915.12c.11,3.16-1.74,4.45-2.78,7.97-2-1.97-1.92-6.14-3.76-7.72,2.24,1.18,4.33-.93,6.53-.25Z"/>
        <g>
          <path class="cls-13" d="M124.92,471.13c-1.02-.82-4.92-2.49-8.08-3.15-2.56-17.47-4.51-38.48-5.55-56.6-.21-3.65,7.58-3.54,10.04-5.14,2.35-30.4-4.41-62.03,3.17-89.94,27.62,8.04,50.87,27.69,57.7,57.85,6.48,28.58-2.71,56.07-24.62,73.92,3.28,2.22,6.88,6.88,4.07,8.88l-15.15,10.75-21.59,3.43ZM145.63,417.36c3.65-4.18,3.47-10.37.46-13.04-2.17-1.92-10.96-2.08-10.47.71,1.06,6.15,6.95,9.02,10.01,12.33Z"/>
          <path class="cls-2" d="M125.04,511.4c.06-2.57.44-8.16-5.12-8.92,1.23,10.16,1.47,18.88-3.77,28.58-13.45-16.36-11.68-52.18,3.96-52.36,3.26,1.89,7-.88,11.73,2.82-.33,5.76,1.07,11.01,6.06,16.13,11.32-11.14-1.89-19.78,12.14-20.88,13.4-1.06,23.63,32.3,15.26,47.9l-13.67-19.92c.47,17.28,2.91,33.28-4.34,49.2-5.18-9.84-8.63-18.6-14.83-27.33-3.74-5.27-1.81-13.29-7.44-15.2Z"/>
          <path class="cls-12" d="M145.63,417.36c-3.06-3.31-8.95-6.18-10.01-12.33-.48-2.79,8.3-2.63,10.47-.71,3.01,2.67,3.19,8.86-.46,13.04Z"/>
        </g>
      </g>
    </g>
    <rect class="cls-7" x="202" y="202" width="1600" height="1600"/>
    <g id="Generatives_Objekt-2" data-name="Generatives Objekt" class="cls-17">
      <polygon class="cls-14" points="1292.18 1282.05 1284.75 1282.07 1284.75 1278.94 1292.16 1278.93 1292.18 1282.05"/>
      <g>
        <g>
          <path class="cls-6" d="M1308.58,1295.61c.16-2.58.16-5.21.01-7.8-.02-.3.17-.67.12-1.04-.07-.51.39-.95.9-.94h6.95c.65,0,.89.51.89,1.12l-.03,33.85h-1.72s-.03-4.49-.03-4.49l-5.25.02-.03,4.46c-.62-.01-1.16.11-1.67-.06l-.13-25.12ZM1315.69,1310.79v-23.28s-5.34.02-5.34.02l.03,23.28,5.3-.02ZM1315.67,1314.62v-2.11s-5.22,0-5.22,0c-.09.73-.07,1.39,0,2.14l5.23-.02Z"/>
          <polygon class="cls-20" points="1315.69 1310.79 1310.39 1310.81 1310.35 1287.53 1315.71 1287.5 1315.69 1310.79"/>
          <path class="cls-14" d="M1315.67,1314.62l-5.23.02c-.06-.74-.09-1.41,0-2.14h5.23s-.01,2.11-.01,2.11Z"/>
        </g>
        <g>
          <path class="cls-6" d="M1268.18,1287.81l.13,7.81-.15,25.13c-.63.11-1.11.08-1.7.02l-.04-4.44h-5.23s-.01,4.45-.01,4.45c-.6.06-1.11.08-1.73,0v-34.24c0-.49.56-.69.89-.69h6.81c.63,0,1.04.48,1.01,1.08-.02.34-.01.62.02.88ZM1266.47,1310.75v-23.24s-5.34.02-5.34.02l.03,23.27,5.31-.04ZM1266.44,1314.63c0-.93.11-1.48-.07-2.15h-5.2c-.04.77-.07,1.45.05,2.17l5.22-.02Z"/>
          <polygon class="cls-20" points="1266.47 1310.75 1261.16 1310.79 1261.13 1287.52 1266.47 1287.5 1266.47 1310.75"/>
          <path class="cls-14" d="M1266.44,1314.63l-5.22.02c-.12-.72-.09-1.41-.05-2.16h5.2c.18.66.06,1.2.07,2.14Z"/>
        </g>
        <g>
          <path class="cls-14" d="M1284.01,1315.28v2.15c-.32.04-.91-.04-1.17.19-2.06-.41-4.33-.08-6.49-.16-.4-.01-.82,0-1.21-.13v-2.06c2.91.09,5.94.11,8.86,0Z"/>
          <path class="cls-14" d="M1301.78,1315.19v2.17c-.32.09-.78.14-1.24.14l-6.34-.02c-.12,0-.12.25-.24.16-.22-.37-.68-.07-1.05-.29.03-.69.06-1.38,0-2.07l8.87-.09Z"/>
          <g>
            <path class="cls-6" d="M1276.35,1317.47l.05,6.96,6.47-.05-.03-6.76c.26-.23.85-.15,1.17-.19.14-.02.55-.05.55.18l.04,13.9-10.93.02c-.37,0-.67-.09-.85-.25-.23-.21-.32-.46-.22-.76l1.91-5.65.16-7.36c.17-.07.4-.03.47-.16.38.13.81.11,1.21.13ZM1282.88,1329.84v-3.75s-6.81-.01-6.81-.01l-1.48,3.76h8.29Z"/>
            <path class="cls-20" d="M1282.84,1317.63l.03,6.76-6.47.05-.05-6.96c2.16.08,4.43-.25,6.49.16Z"/>
            <polygon class="cls-20" points="1282.88 1329.84 1274.59 1329.84 1276.07 1326.09 1282.88 1326.1 1282.88 1329.84"/>
          </g>
          <g>
            <path class="cls-6" d="M1293.96,1317.64l.06,6.79,6.48-.02.04-6.91c.45,0,.91-.05,1.22-.14.07.02.41.08.41.22l.19,7.27c.04,1.34,2.54,5.61,1.71,6.4-.14.13-.37.25-.7.25h-11.09s-.02-13.97-.02-13.97c.28-.15.51,0,.63-.18.38.21.83-.09,1.05.29ZM1302.25,1329.82l-1.41-3.74h-6.82s0,3.75,0,3.75h8.24Z"/>
            <path class="cls-20" d="M1300.54,1317.49l-.04,6.91-6.48.02-.06-6.79c.13.08.13-.16.24-.16l6.34.02Z"/>
            <polygon class="cls-20" points="1302.25 1329.82 1294.01 1329.84 1294.01 1326.09 1300.84 1326.09 1302.25 1329.82"/>
          </g>
          <g>
            <path class="cls-20" d="M1304.93,1313.49h-32.99s0-29.75,0-29.75h32.98s0,29.75,0,29.75ZM1300.51,1296.33c1.77-2.28,1.33-5.33-.69-7.14-2.06-1.85-5.2-1.95-7.38-.07-2.51,2.17-2.42,5.9,0,8.02,2.35,2.06,6.05,1.8,8.07-.8Z"/>
            <g>
              <path class="cls-6" d="M1300.51,1296.33c-2.03,2.61-5.72,2.86-8.07.8-2.42-2.12-2.51-5.85,0-8.02,2.19-1.89,5.32-1.79,7.38.07,2.02,1.81,2.46,4.87.69,7.14ZM1297.97,1296.32c1.64-.88,2.29-2.71,1.74-4.36-.51-1.52-2.08-2.63-3.85-2.51-1.61.11-2.88,1.19-3.32,2.44-.55,1.58-.02,3.11,1.1,4.04,1.21.99,2.84,1.19,4.32.4Z"/>
              <path class="cls-1" d="M1297.97,1296.32c-1.48.79-3.11.59-4.32-.4-1.12-.92-1.65-2.46-1.1-4.04.43-1.25,1.71-2.33,3.32-2.44,1.77-.12,3.34.99,3.85,2.51.55,1.65-.1,3.49-1.74,4.36Z"/>
            </g>
          </g>
        </g>
      </g>
      <g>
        <path class="cls-6" d="M1306.77,1287.81c-.31,2.59.03,5.23,0,7.8l-.16,18.82c0,.49-.61.73-1,.73l-3.84.03-8.87.09c-2.96.03-5.94-.11-8.9,0s-5.95.09-8.87,0l-4.13-.12c-.4-.01-.78-.56-.78-.88l-.11-18.67c-.02-2.58.35-5.24,0-7.81.25-1.55.02-3.14.11-4.79.03-.53.34-.92.92-.92l11.82-.02v-3.14s-9.31,0-9.31,0c-.48,0-.88-.42-.88-.86l-.03-5.85-2.05-.04c-.67-.01-.95-.6-.95-1.19v-9.11c0-1.78,2.56-.86,4.26-1.12,2.38-5.36,7.5-9,13.56-9.32l.02-4.35c-1.42-.47-2.2-1.76-2.03-3.05.19-1.44,1.4-2.48,2.82-2.5s2.72.94,2.96,2.42c.21,1.3-.57,2.64-2.01,3.14l.02,4.34c5.94.36,11.11,3.87,13.49,9.3l3.39.05c.47,0,.9.45.9.93l.03,9.26c0,.6-.28,1.17-.94,1.19l-2.05.05-.03,5.87c0,.54-.51.83-1.03.83h-9.18s0,3.15,0,3.15l11.84.03c.4,0,1.02.45.93.92-.31,1.62.26,3.3.08,4.79ZM1288.15,1243.25c-.72.18-1.1.88-.81,1.57.2.49.78.85,1.47.64.55-.17,1.02-.77.79-1.48-.16-.49-.76-.91-1.44-.74ZM1302.39,1277.25l.04-9.87c.02-4.62-1.99-8.89-5.63-11.55-3.85-2.82-8.86-3.53-13.34-1.83-5.18,1.97-8.95,6.74-8.96,12.21l-.03,11.05h27.92ZM1272.76,1266.93c0-1.55.18-2.99.62-4.47-.71-.04-1.25-.06-1.91.02l.03,7.99c.43.08.78.07,1.25,0l.02-3.54ZM1305.4,1270.45l.02-7.96c-.65-.08-1.2-.05-1.89-.02.31,1.25.56,2.44.58,3.74l.05,4.27c.46.01.81.06,1.25-.03ZM1292.18,1282.05l-.03-3.12h-7.41s0,3.14,0,3.14l7.43-.02ZM1304.93,1313.49v-29.75s-32.99,0-32.99,0v29.75s32.99,0,32.99,0Z"/>
        <path class="cls-20" d="M1302.39,1277.25h-27.92s.03-11.04.03-11.04c.01-5.47,3.78-10.24,8.96-12.21,4.48-1.7,9.49-.99,13.34,1.83,3.64,2.66,5.65,6.93,5.63,11.55l-.04,9.87ZM1281.2,1261.94c-2.29.61-3.51,2.93-2.83,5.06.65,2.05,2.9,3.28,5,2.71,2.22-.61,3.52-2.85,2.92-4.98s-2.82-3.4-5.09-2.79ZM1293.48,1261.94c-2.31.62-3.53,2.91-2.83,5.07.66,2.03,2.89,3.27,4.98,2.69,2.2-.61,3.52-2.82,2.93-4.9-.62-2.18-2.81-3.48-5.08-2.87ZM1291.55,1274.37c.56,0,.97-.33.97-.84,0-.36-.32-.84-.83-.84l-6.66.02c-.51,0-.76.56-.69.95.07.34.37.68.84.69l6.35.02Z"/>
        <path class="cls-14" d="M1305.4,1270.45c-.44.09-.79.05-1.25.03l-.05-4.27c-.02-1.31-.27-2.5-.58-3.74.69-.03,1.24-.06,1.89.02l-.02,7.96Z"/>
        <path class="cls-14" d="M1272.76,1266.93l-.02,3.54c-.47.06-.82.08-1.25,0l-.03-7.99c.66-.08,1.21-.05,1.91-.02-.43,1.48-.61,2.92-.62,4.47Z"/>
        <path class="cls-21" d="M1288.15,1243.25c.68-.17,1.28.25,1.44.74.23.71-.24,1.31-.79,1.48-.69.21-1.26-.16-1.47-.64-.29-.69.09-1.39.81-1.57Z"/>
        <path class="cls-6" d="M1291.55,1274.37l-6.35-.02c-.47,0-.78-.35-.84-.69-.08-.39.18-.95.69-.95l6.66-.02c.5,0,.83.48.83.84,0,.51-.42.84-.97.84Z"/>
        <g>
          <path class="cls-6" d="M1281.2,1261.94c2.26-.61,4.48.66,5.09,2.79s-.7,4.37-2.92,4.98c-2.09.57-4.34-.66-5-2.71-.68-2.13.55-4.44,2.83-5.06ZM1281.64,1263.57c-1.39.39-2.03,1.77-1.61,2.98s1.71,1.83,2.87,1.53c1.34-.35,2.03-1.68,1.72-2.85-.34-1.29-1.65-2.04-2.98-1.67Z"/>
          <path class="cls-1" d="M1281.64,1263.57c1.33-.37,2.63.38,2.98,1.67.31,1.17-.38,2.5-1.72,2.85-1.16.3-2.46-.35-2.87-1.53s.22-2.59,1.61-2.98Z"/>
        </g>
        <g>
          <path class="cls-6" d="M1293.48,1261.94c2.27-.61,4.46.69,5.08,2.87s-.73,4.29-2.93,4.9c-2.09.58-4.32-.66-4.98-2.69-.7-2.16.52-4.45,2.83-5.07ZM1293.96,1263.56c-1.34.36-2.03,1.7-1.68,2.91s1.73,1.92,2.9,1.61c1.36-.37,2.03-1.68,1.72-2.85-.35-1.29-1.67-2.02-2.94-1.67Z"/>
          <path class="cls-1" d="M1293.96,1263.56c1.27-.35,2.59.39,2.94,1.67.32,1.17-.36,2.48-1.72,2.85-1.17.31-2.53-.37-2.9-1.61s.34-2.55,1.68-2.91Z"/>
        </g>
      </g>
    </g>
    <g id="Generatives_Objekt-3" data-name="Generatives Objekt" class="cls-17">
      <polygon class="cls-4" points="722.18 712.81 714.75 712.82 714.75 709.69 722.16 709.69 722.18 712.81"/>
      <g>
        <g>
          <path class="cls-11" d="M738.58,726.37c.16-2.58.16-5.21.01-7.8-.02-.3.17-.67.12-1.04-.07-.51.39-.95.9-.94h6.95c.65,0,.89.51.89,1.12l-.03,33.85h-1.72s-.03-4.49-.03-4.49l-5.25.02-.03,4.46c-.62-.01-1.16.11-1.67-.06l-.13-25.12ZM745.69,741.54v-23.28s-5.34.02-5.34.02l.03,23.28,5.3-.02ZM745.67,745.38v-2.11s-5.22,0-5.22,0c-.09.73-.07,1.39,0,2.14l5.23-.02Z"/>
          <polygon class="cls-12" points="745.69 741.54 740.39 741.56 740.36 718.28 745.71 718.25 745.69 741.54"/>
          <path class="cls-4" d="M745.67,745.38l-5.23.02c-.06-.74-.09-1.41,0-2.14h5.23s-.01,2.11-.01,2.11Z"/>
        </g>
        <g>
          <path class="cls-11" d="M698.18,718.56l.13,7.81-.15,25.13c-.63.11-1.11.08-1.7.02l-.04-4.44h-5.23s-.01,4.45-.01,4.45c-.6.06-1.11.08-1.73,0v-34.24c0-.49.56-.69.89-.69h6.81c.63,0,1.04.48,1.01,1.08-.02.34-.01.62.02.88ZM696.47,741.5v-23.24s-5.34.02-5.34.02l.03,23.27,5.31-.04ZM696.44,745.38c0-.93.11-1.48-.07-2.15h-5.2c-.04.77-.07,1.45.05,2.17l5.22-.02Z"/>
          <polygon class="cls-12" points="696.47 741.5 691.17 741.54 691.14 718.27 696.47 718.25 696.47 741.5"/>
          <path class="cls-4" d="M696.44,745.38l-5.22.02c-.12-.72-.09-1.41-.05-2.16h5.2c.18.66.06,1.2.07,2.14Z"/>
        </g>
        <g>
          <path class="cls-4" d="M714.01,746.03v2.15c-.32.04-.91-.04-1.17.19-2.06-.41-4.33-.08-6.49-.16-.4-.01-.82,0-1.21-.13v-2.06c2.91.09,5.94.11,8.86,0Z"/>
          <path class="cls-4" d="M731.78,745.94v2.17c-.32.09-.78.14-1.24.14l-6.34-.02c-.12,0-.12.25-.24.16-.22-.37-.68-.07-1.05-.29.03-.69.06-1.38,0-2.07l8.87-.09Z"/>
          <g>
            <path class="cls-11" d="M706.35,748.22l.05,6.96,6.47-.05-.03-6.76c.26-.23.85-.15,1.17-.19.14-.02.55-.05.55.18l.04,13.9-10.93.02c-.37,0-.67-.09-.85-.25-.23-.21-.32-.46-.22-.76l1.91-5.65.16-7.36c.17-.07.4-.03.47-.16.38.13.81.11,1.21.13ZM712.88,760.6v-3.75s-6.81-.01-6.81-.01l-1.48,3.76h8.29Z"/>
            <path class="cls-12" d="M712.84,748.38l.03,6.76-6.47.05-.05-6.96c2.16.08,4.43-.25,6.49.16Z"/>
            <polygon class="cls-12" points="712.88 760.6 704.59 760.59 706.07 756.84 712.88 756.85 712.88 760.6"/>
          </g>
          <g>
            <path class="cls-11" d="M723.97,748.39l.06,6.79,6.48-.02.04-6.91c.45,0,.91-.05,1.22-.14.07.02.41.08.41.22l.19,7.27c.04,1.34,2.54,5.61,1.71,6.4-.14.13-.37.25-.7.25h-11.09s-.02-13.97-.02-13.97c.28-.15.51,0,.63-.18.38.21.83-.09,1.05.29ZM732.25,760.58l-1.41-3.74h-6.82s0,3.75,0,3.75h8.24Z"/>
            <path class="cls-12" d="M730.55,748.25l-.04,6.91-6.48.02-.06-6.79c.13.08.13-.16.24-.16l6.34.02Z"/>
            <polygon class="cls-12" points="732.25 760.58 724.01 760.59 724.02 756.85 730.84 756.84 732.25 760.58"/>
          </g>
          <g>
            <path class="cls-12" d="M734.93,744.25h-32.99s0-29.75,0-29.75h32.98s0,29.75,0,29.75ZM730.51,727.08c1.77-2.28,1.33-5.33-.69-7.14s-5.2-1.95-7.38-.07c-2.51,2.17-2.42,5.9,0,8.02s6.05,1.8,8.07-.8Z"/>
            <g>
              <path class="cls-11" d="M730.51,727.08c-2.03,2.61-5.72,2.86-8.07.8s-2.51-5.85,0-8.02c2.19-1.89,5.32-1.79,7.38.07s2.46,4.87.69,7.14ZM727.97,727.07c1.64-.88,2.29-2.71,1.74-4.36-.51-1.52-2.08-2.63-3.85-2.51-1.61.11-2.88,1.19-3.32,2.44-.55,1.58-.02,3.11,1.1,4.04,1.21.99,2.84,1.19,4.32.4Z"/>
              <path class="cls-15" d="M727.97,727.07c-1.48.79-3.11.59-4.32-.4-1.12-.92-1.65-2.46-1.1-4.04.43-1.25,1.71-2.33,3.32-2.44,1.77-.12,3.34.99,3.85,2.51.55,1.65-.1,3.49-1.74,4.36Z"/>
            </g>
          </g>
        </g>
      </g>
      <g>
        <path class="cls-11" d="M736.77,718.56c-.31,2.59.03,5.23,0,7.8l-.16,18.82c0,.49-.61.73-1,.73l-3.84.03-8.87.09c-2.96.03-5.94-.11-8.9,0s-5.95.09-8.87,0l-4.13-.12c-.4-.01-.78-.56-.78-.88l-.11-18.67c-.02-2.58.35-5.24,0-7.81.25-1.55.02-3.14.11-4.79.03-.53.34-.92.92-.92l11.82-.02v-3.14s-9.31,0-9.31,0c-.48,0-.88-.42-.88-.86l-.03-5.85-2.05-.04c-.67-.01-.95-.6-.95-1.19v-9.11c0-1.78,2.56-.86,4.26-1.12,2.38-5.36,7.5-9,13.56-9.32l.02-4.35c-1.42-.47-2.2-1.76-2.03-3.05.19-1.44,1.4-2.48,2.82-2.5s2.72.94,2.96,2.42c.21,1.3-.57,2.64-2.01,3.14l.02,4.34c5.94.36,11.11,3.87,13.49,9.3l3.39.05c.47,0,.9.45.9.93l.03,9.26c0,.6-.28,1.17-.94,1.19l-2.05.05-.03,5.87c0,.54-.51.83-1.03.83h-9.18s0,3.15,0,3.15l11.84.03c.4,0,1.02.45.93.92-.31,1.62.26,3.3.08,4.79ZM718.15,674.01c-.72.18-1.1.88-.81,1.57.2.49.78.85,1.47.64.55-.17,1.02-.77.79-1.48-.16-.49-.76-.91-1.44-.74ZM732.4,708l.04-9.87c.02-4.62-1.99-8.89-5.63-11.55-3.85-2.82-8.86-3.53-13.34-1.83-5.18,1.97-8.95,6.74-8.96,12.21l-.03,11.05h27.92ZM702.76,697.69c0-1.55.18-2.99.62-4.47-.71-.04-1.25-.06-1.91.02l.03,7.99c.43.08.78.07,1.25,0l.02-3.54ZM735.4,701.2l.02-7.96c-.65-.08-1.2-.05-1.89-.02.31,1.25.56,2.44.58,3.74l.05,4.27c.46.01.81.06,1.25-.03ZM722.18,712.81l-.03-3.12h-7.41s0,3.14,0,3.14l7.43-.02ZM734.93,744.25v-29.75s-32.99,0-32.99,0v29.75s32.99,0,32.99,0Z"/>
        <path class="cls-12" d="M732.4,708h-27.92s.03-11.04.03-11.04c.01-5.47,3.78-10.24,8.96-12.21,4.48-1.7,9.49-.99,13.34,1.83,3.64,2.66,5.65,6.93,5.63,11.55l-.04,9.87ZM711.2,692.69c-2.29.61-3.51,2.93-2.83,5.06s2.9,3.28,5,2.71c2.22-.61,3.52-2.85,2.92-4.98s-2.82-3.4-5.09-2.79ZM723.49,692.69c-2.31.62-3.53,2.91-2.83,5.07.66,2.03,2.89,3.27,4.98,2.69,2.2-.61,3.52-2.82,2.93-4.9-.62-2.18-2.81-3.48-5.08-2.87ZM721.56,705.12c.56,0,.97-.33.97-.84,0-.36-.32-.84-.83-.84l-6.66.02c-.51,0-.76.56-.69.95.07.34.37.68.84.69l6.35.02Z"/>
        <path class="cls-4" d="M735.4,701.2c-.44.09-.79.05-1.25.03l-.05-4.27c-.02-1.31-.27-2.5-.58-3.74.69-.03,1.24-.06,1.89.02l-.02,7.96Z"/>
        <path class="cls-4" d="M702.76,697.69l-.02,3.54c-.47.06-.82.08-1.25,0l-.03-7.99c.66-.08,1.21-.05,1.91-.02-.43,1.48-.61,2.92-.62,4.47Z"/>
        <path class="cls-18" d="M718.15,674.01c.68-.17,1.28.25,1.44.74.23.71-.24,1.31-.79,1.48-.69.21-1.26-.16-1.47-.64-.29-.69.09-1.39.81-1.57Z"/>
        <path class="cls-11" d="M721.56,705.12l-6.35-.02c-.47,0-.78-.35-.84-.69-.08-.39.18-.95.69-.95l6.66-.02c.5,0,.83.48.83.84,0,.51-.42.84-.97.84Z"/>
        <g>
          <path class="cls-11" d="M711.2,692.69c2.26-.61,4.48.66,5.09,2.79s-.7,4.37-2.92,4.98c-2.09.57-4.34-.66-5-2.71s.55-4.44,2.83-5.06ZM711.64,694.32c-1.39.39-2.03,1.77-1.61,2.98s1.71,1.83,2.87,1.53c1.34-.35,2.03-1.68,1.72-2.85-.34-1.29-1.65-2.04-2.98-1.67Z"/>
          <path class="cls-15" d="M711.64,694.32c1.33-.37,2.63.38,2.98,1.67.31,1.17-.38,2.5-1.72,2.85-1.16.3-2.46-.35-2.87-1.53s.22-2.59,1.61-2.98Z"/>
        </g>
        <g>
          <path class="cls-11" d="M723.49,692.69c2.27-.61,4.46.69,5.08,2.87s-.73,4.29-2.93,4.9-4.32-.66-4.98-2.69c-.7-2.16.52-4.45,2.83-5.07ZM723.96,694.31c-1.34.36-2.03,1.7-1.68,2.91s1.73,1.92,2.9,1.61c1.36-.37,2.03-1.68,1.72-2.85-.35-1.29-1.67-2.02-2.94-1.67Z"/>
          <path class="cls-15" d="M723.96,694.31c1.27-.35,2.59.39,2.94,1.67.32,1.17-.36,2.48-1.72,2.85-1.17.31-2.53-.37-2.9-1.61s.34-2.55,1.68-2.91Z"/>
        </g>
      </g>
    </g>
  </g>
  <g id="Grid">
    <g>
      <rect class="cls-8" x="202" y="202" width="1600" height="1600"/>
      <line class="cls-8" x1="202" y1="1687.71" x2="1802" y2="1687.71"/>
      <line class="cls-8" x1="202" y1="1573.43" x2="1802" y2="1573.43"/>
      <line class="cls-8" x1="202" y1="1459.14" x2="1802" y2="1459.14"/>
      <line class="cls-8" x1="202" y1="1344.86" x2="1802" y2="1344.86"/>
      <line class="cls-8" x1="202" y1="1230.57" x2="1802" y2="1230.57"/>
      <line class="cls-8" x1="202" y1="1116.29" x2="1802" y2="1116.29"/>
      <line class="cls-8" x1="202" y1="1002" x2="1802" y2="1002"/>
      <line class="cls-8" x1="202" y1="887.71" x2="1802" y2="887.71"/>
      <line class="cls-8" x1="202" y1="773.43" x2="1802" y2="773.43"/>
      <line class="cls-8" x1="202" y1="659.14" x2="1802" y2="659.14"/>
      <line class="cls-8" x1="202" y1="544.86" x2="1802" y2="544.86"/>
      <line class="cls-8" x1="202" y1="430.57" x2="1802" y2="430.57"/>
      <line class="cls-8" x1="202" y1="316.29" x2="1802" y2="316.29"/>
      <line class="cls-8" x1="1687.71" y1="202" x2="1687.71" y2="1802"/>
      <line class="cls-8" x1="1573.43" y1="202" x2="1573.43" y2="1802"/>
      <line class="cls-8" x1="1459.14" y1="202" x2="1459.14" y2="1802"/>
      <line class="cls-8" x1="1344.86" y1="202" x2="1344.86" y2="1802"/>
      <line class="cls-8" x1="1230.57" y1="202" x2="1230.57" y2="1802"/>
      <line class="cls-8" x1="1116.29" y1="202" x2="1116.29" y2="1802"/>
      <line class="cls-8" x1="1002" y1="202" x2="1002" y2="1802"/>
      <line class="cls-8" x1="887.71" y1="202" x2="887.71" y2="1802"/>
      <line class="cls-8" x1="773.43" y1="202" x2="773.43" y2="1802"/>
      <line class="cls-8" x1="659.14" y1="202" x2="659.14" y2="1802"/>
      <line class="cls-8" x1="544.86" y1="202" x2="544.86" y2="1802"/>
      <line class="cls-8" x1="430.57" y1="202" x2="430.57" y2="1802"/>
      <line class="cls-8" x1="316.29" y1="202" x2="316.29" y2="1802"/>
    </g>
  </g>
</svg>