<?xml version="1.0" encoding="UTF-8"?>
<svg id="Ebene_1" xmlns="http://www.w3.org/2000/svg" version="1.1" viewBox="0 0 80 80">
  <!-- Generator: Adobe Illustrator 30.2.1, SVG Export Plug-In . SVG Version: 2.1.1 Build 1)  -->
  <defs>
    <style>
      .st0 {
        fill: #9d9f9f;
      }

      .st1 {
        fill: #3b525f;
      }

      .st2 {
        fill: #0071bc;
      }

      .st3 {
        fill: #faa031;
      }

      .st4 {
        fill: #afbdc1;
      }
    </style>
  </defs>
  <g id="Generatives_Objekt">
    <polygon class="st0" points="43.31 35.75 37.14 35.76 37.14 33.11 43.28 33.1 43.31 35.75"/>
    <g>
      <g>
        <path class="st1" d="M56.91,47.24c.13-2.19.13-4.42,0-6.61-.01-.25.14-.57.1-.88-.06-.43.32-.8.75-.8h5.77c.54,0,.74.44.74.95l-.03,28.7h-1.43s-.02-3.8-.02-3.8h-4.35s-.03,3.8-.03,3.8c-.52,0-.96.09-1.39-.05l-.11-21.3ZM62.82,60.11v-19.74s-4.43.02-4.43.02l.03,19.74,4.4-.02ZM62.79,63.36v-1.79s-4.33,0-4.33,0c-.08.62-.05,1.18,0,1.81l4.34-.02Z"/>
        <polygon class="st2" points="62.82 60.11 58.41 60.12 58.39 40.39 62.83 40.37 62.82 60.11"/>
        <path class="st0" d="M62.79,63.36l-4.34.02c-.05-.63-.07-1.2,0-1.81h4.34s-.01,1.79-.01,1.79Z"/>
      </g>
      <g>
        <path class="st1" d="M23.38,40.62l.11,6.62-.13,21.31c-.52.09-.92.07-1.41.01l-.03-3.77h-4.34s-.01,3.77-.01,3.77c-.5.05-.92.07-1.44,0v-29.03c0-.42.47-.58.74-.58h5.65c.52,0,.86.4.84.92-.01.28,0,.53.02.75ZM21.97,60.07v-19.71s-4.43.01-4.43.01l.03,19.73,4.4-.03ZM21.94,63.37c0-.79.09-1.25-.06-1.82h-4.32c-.03.65-.06,1.23.04,1.84l4.34-.02Z"/>
        <polygon class="st2" points="21.97 60.07 17.56 60.1 17.54 40.38 21.97 40.36 21.97 60.07"/>
        <path class="st0" d="M21.94,63.37l-4.34.02c-.1-.61-.07-1.19-.04-1.83h4.32c.15.56.05,1.02.06,1.81Z"/>
      </g>
      <g>
        <path class="st0" d="M36.52,63.92v1.83c-.26.03-.75-.04-.97.16-1.71-.35-3.6-.07-5.38-.13-.33-.01-.68,0-1-.11v-1.74c2.42.07,4.93.09,7.36,0Z"/>
        <path class="st0" d="M51.27,63.84v1.84c-.27.07-.65.12-1.03.12l-5.26-.02c-.1,0-.1.21-.2.14-.18-.32-.56-.06-.87-.24.03-.58.05-1.17,0-1.75l7.36-.08Z"/>
        <g>
          <path class="st1" d="M30.17,65.77l.04,5.9,5.37-.04-.03-5.73c.22-.2.71-.13.97-.16.11-.01.46-.04.46.15l.03,11.78-9.07.02c-.3,0-.55-.07-.7-.21-.19-.18-.27-.39-.18-.65l1.58-4.79.14-6.24c.14-.06.33-.02.39-.13.32.11.67.09,1,.11ZM35.58,76.26v-3.18s-5.65,0-5.65,0l-1.23,3.18h6.88Z"/>
          <path class="st2" d="M35.55,65.9l.03,5.73-5.37.04-.04-5.9c1.79.07,3.67-.21,5.38.13Z"/>
          <polygon class="st2" points="35.58 76.26 28.7 76.26 29.93 73.08 35.58 73.09 35.58 76.26"/>
        </g>
        <g>
          <path class="st1" d="M44.78,65.91l.05,5.76,5.38-.02.03-5.86c.38,0,.76-.04,1.02-.12.06.02.34.06.34.18l.16,6.16c.03,1.14,2.11,4.75,1.42,5.43-.11.11-.31.21-.58.21h-9.2s-.01-11.85-.01-11.85c.23-.13.43,0,.53-.15.31.18.69-.07.87.24ZM51.66,76.24l-1.17-3.17h-5.66s0,3.18,0,3.18h6.84Z"/>
          <path class="st2" d="M50.24,65.79l-.03,5.86-5.38.02-.05-5.76c.11.07.11-.14.2-.14l5.26.02Z"/>
          <polygon class="st2" points="51.66 76.24 44.82 76.26 44.83 73.08 50.49 73.08 51.66 76.24"/>
        </g>
        <g>
          <path class="st2" d="M53.88,62.4h-27.38s0-25.22,0-25.22h27.37s0,25.22,0,25.22ZM50.21,47.85c1.47-1.93,1.1-4.52-.57-6.06s-4.31-1.65-6.13-.06c-2.09,1.84-2.01,5,0,6.8s5.02,1.53,6.7-.68Z"/>
          <g>
            <path class="st1" d="M50.21,47.85c-1.68,2.21-4.75,2.43-6.7.68s-2.09-4.96,0-6.8c1.81-1.6,4.41-1.52,6.13.06s2.04,4.13.57,6.06ZM48.1,47.84c1.36-.74,1.9-2.3,1.44-3.7-.42-1.29-1.72-2.23-3.19-2.13-1.33.09-2.39,1.01-2.75,2.07-.45,1.34-.01,2.64.92,3.42,1,.84,2.36,1.01,3.59.34Z"/>
            <path class="st3" d="M48.1,47.84c-1.23.67-2.58.5-3.59-.34-.93-.78-1.37-2.08-.92-3.42.36-1.06,1.42-1.97,2.75-2.07,1.47-.1,2.77.84,3.19,2.13.46,1.4-.08,2.96-1.44,3.7Z"/>
          </g>
        </g>
      </g>
    </g>
    <g>
      <path class="st1" d="M55.41,40.62c-.26,2.19.03,4.44,0,6.61l-.13,15.95c0,.41-.5.62-.83.62l-3.19.03-7.36.08c-2.45.03-4.93-.09-7.38,0s-4.94.08-7.36,0l-3.43-.1c-.33-.01-.65-.48-.65-.75l-.09-15.83c-.01-2.19.29-4.44,0-6.62.21-1.31.02-2.66.09-4.06.02-.45.28-.78.76-.78l9.81-.02v-2.66s-7.73,0-7.73,0c-.4,0-.73-.36-.73-.73l-.02-4.96-1.7-.04c-.55-.01-.79-.51-.79-1.01v-7.72c0-1.51,2.13-.73,3.54-.95,1.98-4.55,6.23-7.63,11.25-7.9v-3.69c-1.17-.39-1.81-1.49-1.68-2.59.16-1.22,1.17-2.1,2.34-2.12s2.26.79,2.45,2.05c.17,1.1-.47,2.24-1.67,2.66v3.68c4.95.3,9.24,3.28,11.21,7.89l2.81.05c.39,0,.75.38.75.79l.02,7.85c0,.51-.23.99-.78,1.01l-1.7.04-.03,4.97c0,.46-.42.71-.85.71h-7.62s0,2.67,0,2.67l9.83.02c.33,0,.85.38.78.78-.25,1.37.22,2.8.07,4.06ZM39.96,2.85c-.6.16-.92.74-.68,1.33.17.41.65.72,1.22.55.45-.14.84-.65.65-1.25-.13-.41-.63-.77-1.2-.63ZM51.78,31.67l.03-8.36c.01-3.92-1.65-7.54-4.67-9.79-3.2-2.39-7.36-2.99-11.07-1.55-4.3,1.67-7.43,5.72-7.44,10.35l-.02,9.37h23.17ZM27.19,22.93c0-1.31.15-2.53.51-3.79-.59-.03-1.04-.05-1.59.02l.03,6.77c.36.07.65.06,1.04,0v-3ZM54.28,25.91v-6.75c-.53-.07-.98-.04-1.56-.02.26,1.06.46,2.07.48,3.17l.04,3.62c.38.01.67.05,1.04-.03ZM43.31,35.75l-.02-2.65h-6.15s0,2.66,0,2.66h6.17ZM53.88,62.4v-25.22s-27.38,0-27.38,0v25.22s27.38,0,27.38,0Z"/>
      <path class="st2" d="M51.78,31.67h-23.17s.02-9.36.02-9.36c.01-4.63,3.14-8.68,7.44-10.35,3.71-1.44,7.87-.84,11.07,1.55,3.02,2.26,4.69,5.87,4.67,9.79l-.03,8.36ZM34.19,18.7c-1.9.52-2.92,2.48-2.35,4.29s2.41,2.78,4.15,2.3c1.84-.51,2.92-2.42,2.43-4.22s-2.34-2.88-4.22-2.37ZM44.39,18.69c-1.92.53-2.93,2.47-2.35,4.3.54,1.72,2.39,2.78,4.13,2.28,1.83-.52,2.92-2.39,2.43-4.15-.51-1.85-2.33-2.95-4.22-2.43ZM42.78,29.23c.46,0,.81-.28.81-.71,0-.3-.27-.71-.68-.71l-5.53.02c-.42,0-.63.48-.57.81.05.29.31.58.7.58l5.27.02Z"/>
      <path class="st0" d="M54.28,25.91c-.36.08-.65.04-1.04.03l-.04-3.62c-.01-1.11-.22-2.12-.48-3.17.57-.02,1.03-.05,1.57.02v6.75Z"/>
      <path class="st0" d="M27.19,22.93v3c-.4.05-.69.06-1.05,0l-.03-6.77c.55-.07,1-.05,1.59-.02-.36,1.25-.51,2.47-.51,3.79Z"/>
      <path class="st4" d="M39.96,2.85c.57-.15,1.07.21,1.2.63.19.6-.2,1.11-.65,1.25-.57.18-1.05-.13-1.22-.55-.24-.59.08-1.18.68-1.33Z"/>
      <path class="st1" d="M42.78,29.23l-5.27-.02c-.39,0-.65-.3-.7-.58-.06-.33.15-.81.57-.81l5.53-.02c.42,0,.69.41.68.71,0,.44-.35.71-.81.71Z"/>
      <g>
        <path class="st1" d="M34.19,18.7c1.88-.52,3.72.56,4.22,2.37s-.58,3.7-2.43,4.22c-1.74.49-3.6-.56-4.15-2.3s.45-3.77,2.35-4.29ZM34.56,20.07c-1.16.33-1.69,1.5-1.33,2.53s1.42,1.55,2.38,1.3c1.11-.29,1.68-1.42,1.42-2.41-.29-1.09-1.37-1.73-2.47-1.42Z"/>
        <path class="st3" d="M34.56,20.07c1.1-.32,2.19.32,2.47,1.42.26.99-.31,2.12-1.42,2.41-.96.25-2.04-.3-2.38-1.3s.18-2.2,1.33-2.53Z"/>
      </g>
      <g>
        <path class="st1" d="M44.39,18.69c1.88-.52,3.7.58,4.22,2.43s-.6,3.63-2.43,4.15-3.59-.56-4.13-2.28c-.58-1.83.43-3.77,2.35-4.3ZM44.78,20.06c-1.11.31-1.69,1.44-1.39,2.47s1.44,1.63,2.4,1.36c1.13-.31,1.69-1.42,1.43-2.41-.29-1.09-1.38-1.71-2.44-1.42Z"/>
        <path class="st3" d="M44.78,20.06c1.06-.29,2.15.33,2.44,1.42.26.99-.3,2.1-1.43,2.41-.97.27-2.1-.31-2.4-1.36s.28-2.16,1.39-2.47Z"/>
      </g>
    </g>
  </g>
</svg>